<svg xmlns="http://www.w3.org/2000/svg" xmlns:xlink="http://www.w3.org/1999/xlink" width="600" zoomAndPan="magnify" viewBox="0 0 450 449.999984" height="600" preserveAspectRatio="xMidYMid meet" version="1.2"><defs><clipPath id="2cce4724c1"><path d="M 106.109375 329.894531 L 122.253906 329.894531 L 122.253906 432.695312 L 106.109375 432.695312 Z M 106.109375 329.894531 "/></clipPath><clipPath id="c7b471b4c5"><path d="M 72.527344 0 L 377.535156 0 L 377.535156 355.984375 L 72.527344 355.984375 Z M 72.527344 0 "/></clipPath><clipPath id="33fa0ea4da"><path d="M 73.332031 323.683594 L 92.871094 323.683594 L 92.871094 450 L 73.332031 450 Z M 73.332031 323.683594 "/></clipPath><clipPath id="171575723c"><path d="M 325.535156 329.894531 L 341.679688 329.894531 L 341.679688 432.695312 L 325.535156 432.695312 Z M 325.535156 329.894531 "/></clipPath><clipPath id="c13ef7c815"><path d="M 356.957031 323.683594 L 376.496094 323.683594 L 376.496094 450 L 356.957031 450 Z M 356.957031 323.683594 "/></clipPath><clipPath id="a9d44bcb7b"><path d="M 107.9375 44.9375 L 340.160156 44.9375 L 340.160156 87.859375 L 107.9375 87.859375 Z M 107.9375 44.9375 "/></clipPath><clipPath id="de48fade1b"><path d="M 116.9375 44.9375 L 331.078125 44.9375 C 336.050781 44.9375 340.078125 48.964844 340.078125 53.9375 L 340.078125 78.859375 C 340.078125 83.832031 336.050781 87.859375 331.078125 87.859375 L 116.9375 87.859375 C 111.964844 87.859375 107.9375 83.832031 107.9375 78.859375 L 107.9375 53.9375 C 107.9375 48.964844 111.964844 44.9375 116.9375 44.9375 Z M 116.9375 44.9375 "/></clipPath><clipPath id="29451fa322"><path d="M 107.273438 160 L 340 160 L 340 329.890625 L 107.273438 329.890625 Z M 107.273438 160 "/></clipPath><clipPath id="fc5daa6033"><path d="M 108.6875 160.644531 L 339.328125 160.644531 C 339.527344 160.644531 339.71875 160.722656 339.859375 160.863281 C 340 161.003906 340.078125 161.195312 340.078125 161.394531 L 340.078125 329.140625 C 340.078125 329.339844 340 329.53125 339.859375 329.671875 C 339.71875 329.8125 339.527344 329.890625 339.328125 329.890625 L 108.6875 329.890625 C 108.488281 329.890625 108.296875 329.8125 108.15625 329.671875 C 108.015625 329.53125 107.9375 329.339844 107.9375 329.140625 L 107.9375 161.394531 C 107.9375 161.195312 108.015625 161.003906 108.15625 160.863281 C 108.296875 160.722656 108.488281 160.644531 108.6875 160.644531 Z M 108.6875 160.644531 "/></clipPath><clipPath id="c9acb9eb26"><path d="M 107.9375 160.644531 L 339.878906 160.644531 L 339.878906 329.714844 L 107.9375 329.714844 Z M 107.9375 160.644531 "/></clipPath><clipPath id="88300f55d1"><path d="M 108.6875 160.644531 L 339.089844 160.644531 C 339.289062 160.644531 339.480469 160.722656 339.621094 160.863281 C 339.757812 161.003906 339.839844 161.195312 339.839844 161.394531 L 339.839844 328.964844 C 339.839844 329.164062 339.757812 329.355469 339.621094 329.496094 C 339.480469 329.636719 339.289062 329.714844 339.089844 329.714844 L 108.6875 329.714844 C 108.488281 329.714844 108.296875 329.636719 108.15625 329.496094 C 108.015625 329.355469 107.9375 329.164062 107.9375 328.964844 L 107.9375 161.394531 C 107.9375 161.195312 108.015625 161.003906 108.15625 160.863281 C 108.296875 160.722656 108.488281 160.644531 108.6875 160.644531 Z M 108.6875 160.644531 "/></clipPath><clipPath id="2f27f09f40"><path d="M 122.261719 177.28125 L 326 177.28125 L 326 313.253906 L 122.261719 313.253906 Z M 122.261719 177.28125 "/></clipPath><clipPath id="38ecd7dba5"><path d="M 123.011719 177.28125 L 325 177.28125 C 325.199219 177.28125 325.390625 177.359375 325.53125 177.5 C 325.671875 177.640625 325.75 177.832031 325.75 178.03125 L 325.75 312.503906 C 325.75 312.703125 325.671875 312.894531 325.53125 313.035156 C 325.390625 313.175781 325.199219 313.253906 325 313.253906 L 123.011719 313.253906 C 122.8125 313.253906 122.621094 313.175781 122.480469 313.035156 C 122.339844 312.894531 122.261719 312.703125 122.261719 312.503906 L 122.261719 178.03125 C 122.261719 177.832031 122.339844 177.640625 122.480469 177.5 C 122.621094 177.359375 122.8125 177.28125 123.011719 177.28125 Z M 123.011719 177.28125 "/></clipPath><clipPath id="dc22cf6797"><path d="M 122.265625 177.28125 L 326 177.28125 L 326 313.214844 L 122.265625 313.214844 Z M 122.265625 177.28125 "/></clipPath><clipPath id="86d11b6ec6"><path d="M 123.015625 177.28125 L 324.949219 177.28125 C 325.148438 177.28125 325.339844 177.359375 325.480469 177.5 C 325.621094 177.640625 325.699219 177.832031 325.699219 178.03125 L 325.699219 312.46875 C 325.699219 312.664062 325.621094 312.855469 325.480469 312.996094 C 325.339844 313.136719 325.148438 313.214844 324.949219 313.214844 L 123.015625 313.214844 C 122.816406 313.214844 122.625 313.136719 122.484375 312.996094 C 122.34375 312.855469 122.265625 312.664062 122.265625 312.46875 L 122.265625 178.03125 C 122.265625 177.832031 122.34375 177.640625 122.484375 177.5 C 122.625 177.359375 122.816406 177.28125 123.015625 177.28125 Z M 123.015625 177.28125 "/></clipPath></defs><g id="0aa90755f6"><g clip-rule="nonzero" clip-path="url(#2cce4724c1)"><path style=" stroke:none;fill-rule:nonzero;fill:#ca0013;fill-opacity:1;" d="M 122.253906 336.359375 L 122.253906 426.230469 C 122.253906 426.652344 122.210938 427.070312 122.128906 427.484375 C 122.046875 427.898438 121.925781 428.300781 121.761719 428.691406 C 121.601562 429.082031 121.402344 429.453125 121.167969 429.804688 C 120.933594 430.15625 120.667969 430.484375 120.367188 430.78125 C 120.070312 431.082031 119.742188 431.347656 119.390625 431.582031 C 119.039062 431.816406 118.667969 432.015625 118.28125 432.175781 C 117.890625 432.339844 117.484375 432.460938 117.070312 432.542969 C 116.65625 432.625 116.238281 432.667969 115.816406 432.667969 L 112.808594 432.667969 C 112.386719 432.667969 111.964844 432.625 111.550781 432.542969 C 111.136719 432.460938 110.734375 432.339844 110.34375 432.175781 C 109.953125 432.015625 109.582031 431.816406 109.230469 431.582031 C 108.878906 431.347656 108.554688 431.082031 108.253906 430.78125 C 107.957031 430.484375 107.691406 430.15625 107.453125 429.804688 C 107.21875 429.453125 107.023438 429.082031 106.859375 428.691406 C 106.699219 428.300781 106.574219 427.898438 106.492188 427.484375 C 106.410156 427.070312 106.371094 426.652344 106.371094 426.230469 L 106.371094 336.359375 C 106.371094 335.9375 106.410156 335.519531 106.492188 335.101562 C 106.574219 334.6875 106.699219 334.285156 106.859375 333.894531 C 107.023438 333.503906 107.21875 333.132812 107.453125 332.78125 C 107.691406 332.429688 107.957031 332.105469 108.253906 331.808594 C 108.554688 331.507812 108.878906 331.242188 109.230469 331.007812 C 109.582031 330.769531 109.953125 330.574219 110.34375 330.410156 C 110.734375 330.25 111.136719 330.128906 111.550781 330.042969 C 111.964844 329.960938 112.386719 329.921875 112.808594 329.921875 L 115.816406 329.921875 C 116.238281 329.921875 116.65625 329.960938 117.070312 330.042969 C 117.484375 330.128906 117.890625 330.25 118.28125 330.410156 C 118.667969 330.574219 119.039062 330.769531 119.390625 331.007812 C 119.742188 331.242188 120.070312 331.507812 120.367188 331.808594 C 120.667969 332.105469 120.933594 332.429688 121.167969 332.78125 C 121.402344 333.132812 121.601562 333.503906 121.761719 333.894531 C 121.925781 334.285156 122.046875 334.6875 122.128906 335.101562 C 122.210938 335.519531 122.253906 335.9375 122.253906 336.359375 Z M 122.253906 336.359375 "/></g><g clip-rule="nonzero" clip-path="url(#c7b471b4c5)"><path style=" stroke:none;fill-rule:nonzero;fill:#ca0013;fill-opacity:1;" d="M 377.535156 320.382812 L 377.535156 76.375 C 377.535156 33.675781 343.984375 0.125 301.28125 0.125 L 148.78125 0.125 C 106.078125 0.125 72.527344 33.675781 72.527344 76.375 L 72.527344 320.382812 C 72.527344 363.082031 106.078125 396.632812 148.78125 396.632812 L 301.28125 396.632812 C 343.984375 396.632812 377.535156 363.082031 377.535156 320.382812 Z M 377.535156 320.382812 "/></g><g clip-rule="nonzero" clip-path="url(#33fa0ea4da)"><path style=" stroke:none;fill-rule:nonzero;fill:#ca0013;fill-opacity:1;" d="M 92.875 331.628906 L 92.875 442.046875 C 92.875 442.566406 92.824219 443.082031 92.722656 443.589844 C 92.621094 444.101562 92.46875 444.59375 92.269531 445.074219 C 92.074219 445.554688 91.828125 446.011719 91.539062 446.441406 C 91.25 446.875 90.925781 447.273438 90.554688 447.640625 C 90.1875 448.007812 89.789062 448.335938 89.359375 448.625 C 88.925781 448.914062 88.46875 449.15625 87.992188 449.355469 C 87.511719 449.554688 87.015625 449.703125 86.507812 449.804688 C 85.996094 449.90625 85.484375 449.957031 84.964844 449.957031 L 81.269531 449.957031 C 80.75 449.957031 80.234375 449.90625 79.726562 449.804688 C 79.214844 449.703125 78.722656 449.554688 78.242188 449.355469 C 77.761719 449.15625 77.304688 448.914062 76.875 448.625 C 76.441406 448.335938 76.042969 448.007812 75.675781 447.640625 C 75.308594 447.273438 74.980469 446.875 74.691406 446.441406 C 74.402344 446.011719 74.160156 445.554688 73.960938 445.074219 C 73.761719 444.59375 73.609375 444.101562 73.511719 443.589844 C 73.410156 443.082031 73.359375 442.566406 73.359375 442.046875 L 73.359375 331.628906 C 73.359375 331.109375 73.410156 330.597656 73.511719 330.085938 C 73.609375 329.578125 73.761719 329.082031 73.960938 328.601562 C 74.160156 328.121094 74.402344 327.667969 74.691406 327.234375 C 74.980469 326.804688 75.308594 326.402344 75.675781 326.035156 C 76.042969 325.667969 76.441406 325.339844 76.875 325.054688 C 77.304688 324.765625 77.761719 324.519531 78.242188 324.320312 C 78.722656 324.125 79.214844 323.972656 79.726562 323.871094 C 80.234375 323.769531 80.75 323.71875 81.269531 323.71875 L 84.964844 323.71875 C 85.484375 323.71875 85.996094 323.769531 86.507812 323.871094 C 87.015625 323.972656 87.511719 324.125 87.992188 324.320312 C 88.46875 324.519531 88.925781 324.765625 89.359375 325.054688 C 89.789062 325.339844 90.1875 325.667969 90.554688 326.035156 C 90.925781 326.402344 91.25 326.804688 91.539062 327.234375 C 91.828125 327.667969 92.074219 328.121094 92.269531 328.601562 C 92.46875 329.082031 92.621094 329.578125 92.722656 330.085938 C 92.824219 330.597656 92.875 331.109375 92.875 331.628906 Z M 92.875 331.628906 "/></g><g clip-rule="nonzero" clip-path="url(#171575723c)"><path style=" stroke:none;fill-rule:nonzero;fill:#ca0013;fill-opacity:1;" d="M 341.679688 336.359375 L 341.679688 426.230469 C 341.679688 426.652344 341.636719 427.070312 341.554688 427.484375 C 341.472656 427.898438 341.351562 428.300781 341.1875 428.691406 C 341.027344 429.082031 340.828125 429.453125 340.59375 429.804688 C 340.359375 430.15625 340.09375 430.484375 339.792969 430.78125 C 339.496094 431.082031 339.167969 431.347656 338.816406 431.582031 C 338.464844 431.816406 338.09375 432.015625 337.707031 432.175781 C 337.316406 432.339844 336.910156 432.460938 336.496094 432.542969 C 336.082031 432.625 335.664062 432.667969 335.242188 432.667969 L 332.234375 432.667969 C 331.8125 432.667969 331.390625 432.625 330.976562 432.542969 C 330.5625 432.460938 330.160156 432.339844 329.769531 432.175781 C 329.378906 432.015625 329.007812 431.816406 328.65625 431.582031 C 328.304688 431.347656 327.980469 431.082031 327.679688 430.78125 C 327.382812 430.484375 327.117188 430.15625 326.878906 429.804688 C 326.644531 429.453125 326.449219 429.082031 326.285156 428.691406 C 326.125 428.300781 326 427.898438 325.917969 427.484375 C 325.835938 427.070312 325.796875 426.652344 325.796875 426.230469 L 325.796875 336.359375 C 325.796875 335.9375 325.835938 335.519531 325.917969 335.101562 C 326 334.6875 326.125 334.285156 326.285156 333.894531 C 326.449219 333.503906 326.644531 333.132812 326.878906 332.78125 C 327.117188 332.429688 327.382812 332.105469 327.679688 331.808594 C 327.980469 331.507812 328.304688 331.242188 328.65625 331.007812 C 329.007812 330.769531 329.378906 330.574219 329.769531 330.410156 C 330.160156 330.25 330.5625 330.128906 330.976562 330.042969 C 331.390625 329.960938 331.8125 329.921875 332.234375 329.921875 L 335.242188 329.921875 C 335.664062 329.921875 336.082031 329.960938 336.496094 330.042969 C 336.910156 330.128906 337.316406 330.25 337.707031 330.410156 C 338.09375 330.574219 338.464844 330.769531 338.816406 331.007812 C 339.167969 331.242188 339.496094 331.507812 339.792969 331.808594 C 340.09375 332.105469 340.359375 332.429688 340.59375 332.78125 C 340.828125 333.132812 341.027344 333.503906 341.1875 333.894531 C 341.351562 334.285156 341.472656 334.6875 341.554688 335.101562 C 341.636719 335.519531 341.679688 335.9375 341.679688 336.359375 Z M 341.679688 336.359375 "/></g><g clip-rule="nonzero" clip-path="url(#c13ef7c815)"><path style=" stroke:none;fill-rule:nonzero;fill:#ca0013;fill-opacity:1;" d="M 376.496094 331.628906 L 376.496094 442.046875 C 376.496094 442.566406 376.449219 443.082031 376.347656 443.589844 C 376.246094 444.101562 376.09375 444.59375 375.894531 445.074219 C 375.695312 445.554688 375.453125 446.011719 375.164062 446.441406 C 374.875 446.875 374.546875 447.273438 374.179688 447.640625 C 373.8125 448.007812 373.414062 448.335938 372.984375 448.625 C 372.550781 448.914062 372.09375 449.15625 371.613281 449.355469 C 371.136719 449.554688 370.640625 449.703125 370.132812 449.804688 C 369.621094 449.90625 369.105469 449.957031 368.585938 449.957031 L 364.890625 449.957031 C 364.375 449.957031 363.859375 449.90625 363.347656 449.804688 C 362.839844 449.703125 362.34375 449.554688 361.867188 449.355469 C 361.386719 449.15625 360.929688 448.914062 360.496094 448.625 C 360.066406 448.335938 359.667969 448.007812 359.300781 447.640625 C 358.933594 447.273438 358.605469 446.875 358.316406 446.441406 C 358.027344 446.011719 357.785156 445.554688 357.585938 445.074219 C 357.386719 444.59375 357.234375 444.101562 357.132812 443.589844 C 357.03125 443.082031 356.980469 442.566406 356.980469 442.046875 L 356.980469 331.628906 C 356.980469 331.109375 357.03125 330.597656 357.132812 330.085938 C 357.234375 329.578125 357.386719 329.082031 357.585938 328.601562 C 357.785156 328.121094 358.027344 327.667969 358.316406 327.234375 C 358.605469 326.804688 358.933594 326.402344 359.300781 326.035156 C 359.667969 325.667969 360.066406 325.339844 360.496094 325.054688 C 360.929688 324.765625 361.386719 324.519531 361.867188 324.320312 C 362.34375 324.125 362.839844 323.972656 363.347656 323.871094 C 363.859375 323.769531 364.375 323.71875 364.890625 323.71875 L 368.585938 323.71875 C 369.105469 323.71875 369.621094 323.769531 370.132812 323.871094 C 370.640625 323.972656 371.136719 324.125 371.613281 324.320312 C 372.09375 324.519531 372.550781 324.765625 372.984375 325.054688 C 373.414062 325.339844 373.8125 325.667969 374.179688 326.035156 C 374.546875 326.402344 374.875 326.804688 375.164062 327.234375 C 375.453125 327.667969 375.695312 328.121094 375.894531 328.601562 C 376.09375 329.082031 376.246094 329.578125 376.347656 330.085938 C 376.449219 330.597656 376.496094 331.109375 376.496094 331.628906 Z M 376.496094 331.628906 "/></g><g clip-rule="nonzero" clip-path="url(#a9d44bcb7b)"><g clip-rule="nonzero" clip-path="url(#de48fade1b)"><path style=" stroke:none;fill-rule:nonzero;fill:#a20013;fill-opacity:1;" d="M 107.9375 44.9375 L 340.160156 44.9375 L 340.160156 87.859375 L 107.9375 87.859375 Z M 107.9375 44.9375 "/></g></g><g clip-rule="nonzero" clip-path="url(#29451fa322)"><g clip-rule="nonzero" clip-path="url(#fc5daa6033)"><path style=" stroke:none;fill-rule:nonzero;fill:#ca0013;fill-opacity:1;" d="M 107.9375 160.644531 L 339.988281 160.644531 L 339.988281 329.890625 L 107.9375 329.890625 Z M 107.9375 160.644531 "/></g></g><g clip-rule="nonzero" clip-path="url(#c9acb9eb26)"><g clip-rule="nonzero" clip-path="url(#88300f55d1)"><path style="fill:none;stroke-width:1.765532;stroke-linecap:butt;stroke-linejoin:miter;stroke:#a20013;stroke-opacity:1;stroke-miterlimit:4;" d="M 0.884259 0.000338106 L 272.3495 0.000338106 C 272.584224 0.000338106 272.809743 0.0923867 272.975431 0.258074 C 273.136516 0.423762 273.233167 0.649281 273.233167 0.884005 L 273.233167 198.319129 C 273.233167 198.553853 273.136516 198.779372 272.975431 198.945059 C 272.809743 199.110747 272.584224 199.202796 272.3495 199.202796 L 0.884259 199.202796 C 0.649535 199.202796 0.424016 199.110747 0.258328 198.945059 C 0.0926409 198.779372 0.000592242 198.553853 0.000592242 198.319129 L 0.000592242 0.884005 C 0.000592242 0.649281 0.0926409 0.423762 0.258328 0.258074 C 0.424016 0.0923867 0.649535 0.000338106 0.884259 0.000338106 Z M 0.884259 0.000338106 " transform="matrix(0.848736,0,0,0.848736,107.936997,160.644244)"/></g></g><g clip-rule="nonzero" clip-path="url(#2f27f09f40)"><g clip-rule="nonzero" clip-path="url(#38ecd7dba5)"><path style=" stroke:none;fill-rule:nonzero;fill:#ca0013;fill-opacity:1;" d="M 122.261719 177.28125 L 325.691406 177.28125 L 325.691406 313.253906 L 122.261719 313.253906 Z M 122.261719 177.28125 "/></g></g><g clip-rule="nonzero" clip-path="url(#dc22cf6797)"><g clip-rule="nonzero" clip-path="url(#86d11b6ec6)"><path style="fill:none;stroke-width:1.765532;stroke-linecap:butt;stroke-linejoin:miter;stroke:#a20013;stroke-opacity:1;stroke-miterlimit:4;" d="M 0.881907 0.00111958 L 238.608441 0.00111958 C 238.842972 0.00111958 239.068305 0.0930923 239.233856 0.258643 C 239.399407 0.424194 239.49138 0.649527 239.49138 0.884058 L 239.49138 159.150745 C 239.49138 159.380677 239.399407 159.60601 239.233856 159.771561 C 239.068305 159.937112 238.842972 160.029085 238.608441 160.029085 L 0.881907 160.029085 C 0.647376 160.029085 0.422043 159.937112 0.256492 159.771561 C 0.0909414 159.60601 -0.0010313 159.380677 -0.0010313 159.150745 L -0.0010313 0.884058 C -0.0010313 0.649527 0.0909414 0.424194 0.256492 0.258643 C 0.422043 0.0930923 0.647376 0.00111958 0.881907 0.00111958 Z M 0.881907 0.00111958 " transform="matrix(0.849436,0,0,0.849436,122.266501,177.280299)"/></g></g></g></svg>