<svg xmlns="http://www.w3.org/2000/svg" version="1.2" viewBox="0 0 187.5 75"><defs><clipPath id="a"><path d="M5 20.88h177.59V53.8H5Zm0 0"/></clipPath><clipPath id="c"><path d="M7.48 61.13h173.54v8.23H7.48Zm0 0"/></clipPath></defs><path fill="#ca0013" d="M14.19 51.25c-2.84 0-4.89-.7-6.14-2.11-1.27-1.41-1.9-3.68-1.9-6.8v-3.05h6.15v3.88c0 1.55.49 2.33 1.48 2.33.56 0 .95-.16 1.16-.49.22-.33.33-.88.33-1.66 0-1.01-.13-1.85-.36-2.51a5.55 5.55 0 0 0-.93-1.67 34.55 34.55 0 0 0-2.01-2.1L9.28 34.4c-2.09-2.04-3.12-4.29-3.12-6.77 0-2.66.6-4.68 1.82-6.08 1.23-1.4 3.02-2.1 5.36-2.1 2.82 0 4.84.75 6.07 2.24 1.23 1.5 1.86 3.83 1.86 7H14.9l-.04-2.14c0-.41-.11-.74-.34-.98a1.29 1.29 0 0 0-.97-.36c-.48 0-.84.14-1.1.4-.23.27-.35.63-.35 1.08 0 1.03.58 2.08 1.75 3.16l3.62 3.48c.86.83 1.56 1.6 2.11 2.35a8.88 8.88 0 0 1 1.35 2.62c.34 1 .51 2.2.51 3.58 0 3.07-.57 5.4-1.7 7-1.13 1.59-2.98 2.38-5.56 2.38Zm11.21-.3V25.73h-3.7v-5.98h13.65v5.98h-3.7v25.22Zm10.61 0v-31.2h6.04v31.2Zm7.73 0v-31.2H50v25.9h6.44v5.3Zm13.62 0v-31.2h6.25v25.9h6.44v5.3Zm0 0"/><path d="M78.7 50.95v-31.2h6.21V30.9h2.94V19.75h6.22v31.2h-6.22V36.78H84.9v14.17Zm17.32 0v-31.2h12.5v6.03h-6.14v6.06h5.89v5.89h-5.9v7.16h6.55v6.06Zm13.33 0 3.02-31.2h10.56l2.99 31.2H120l-.44-5.05h-3.78l-.36 5.05Zm6.91-10.03h2.83l-1.38-15.88h-.3ZM127 50.95v-31.2h6.25v25.9h6.44v5.3Zm13.34 0v-31.2h6.03v31.2Zm7.73 0v-31.2h6.44l2.87 14.92V19.75h6.02v31.2h-6.1l-3.12-15.63v15.63Zm23.73.3c-2.26 0-3.93-.8-5.04-2.38-1.1-1.6-1.65-4-1.65-7.22V28.21c0-2.88.64-5.06 1.92-6.54 1.29-1.48 3.2-2.22 5.75-2.22 2.05 0 3.64.41 4.78 1.23a6.36 6.36 0 0 1 2.38 3.61c.43 1.58.65 3.6.65 6.06h-6.1v-2.8c0-.74-.11-1.32-.32-1.73-.21-.41-.58-.62-1.11-.62-1.19 0-1.78.77-1.78 2.31v15.13c0 .93.12 1.65.36 2.14.25.48.67.72 1.28.72.6 0 1.02-.24 1.27-.72.25-.5.37-1.2.37-2.14v-4.47h-1.67v-5.38h7.62v18.16H178l-1.05-2.61a5.55 5.55 0 0 1-5.16 2.9ZM8.13 67.36v-3.61h-.64v-.6h.64v-.73c0-.4.1-.7.3-.9.2-.18.5-.27.9-.27h.42v.6h-.31c-.22 0-.38.05-.47.15-.09.08-.13.23-.13.44v.71h1.04v.6H8.84v3.6Zm4.15.11c-.4 0-.76-.1-1.08-.27a2.06 2.06 0 0 1-.75-.78 2.43 2.43 0 0 1-.26-1.17c0-.45.09-.83.28-1.16a2 2 0 0 1 .75-.76 2.1 2.1 0 0 1 1.08-.29 2.03 2.03 0 0 1 1.8 1.05c.2.33.29.71.29 1.16 0 .45-.1.84-.28 1.17a1.95 1.95 0 0 1-1.83 1.05Zm0-.63c.25 0 .48-.05.69-.17.2-.11.37-.29.5-.53.13-.24.2-.54.2-.9 0-.34-.07-.62-.2-.87-.13-.24-.3-.41-.5-.53a1.3 1.3 0 0 0-1.35 0c-.2.12-.38.3-.51.53-.13.25-.19.53-.19.88s.06.65.19.89a1.29 1.29 0 0 0 1.17.7Zm2.92.52v-4.2h.65l.06.8c.12-.28.32-.5.58-.67.27-.16.6-.25 1-.25v.75h-.2c-.26 0-.49.05-.7.15-.2.08-.37.23-.5.43-.12.21-.18.5-.18.86v2.13Zm6.61 0c-.38 0-.68-.1-.9-.28-.22-.2-.33-.53-.33-1.02v-2.31h-.74v-.6h.74l.1-1.01h.6v1.01h1.25v.6h-1.25v2.31c0 .27.05.45.16.55.11.1.3.14.58.14h.43v.6Zm1.43 0v-6.11h.71v2.62a1.7 1.7 0 0 1 1.45-.83c.5 0 .89.16 1.18.46.29.3.44.77.44 1.4v2.46h-.7v-2.4c0-.87-.36-1.3-1.07-1.3-.37 0-.67.13-.92.4-.25.26-.38.63-.38 1.11v2.19Zm6.56.11a1.98 1.98 0 0 1-1.8-1.05 2.43 2.43 0 0 1-.26-1.17c0-.44.08-.82.26-1.16.18-.33.42-.58.74-.76.3-.2.67-.29 1.09-.29.4 0 .75.1 1.05.29.3.18.53.41.68.71.16.3.24.63.24.97v.41h-3.36c.02.32.1.59.22.8.13.2.3.37.5.48a1.45 1.45 0 0 0 1.39-.04c.2-.14.33-.32.42-.55h.72a1.88 1.88 0 0 1-1.88 1.36Zm0-3.82c-.34 0-.65.11-.92.32-.26.2-.4.5-.43.89h2.64a1.21 1.21 0 0 0-.4-.88 1.28 1.28 0 0 0-.89-.33Zm6.72 3.82c-.43 0-.8-.1-1.11-.28-.31-.2-.56-.47-.74-.8a2.49 2.49 0 0 1-.25-1.14c0-.43.09-.8.27-1.13a1.98 1.98 0 0 1 1.83-1.08c.34 0 .64.08.9.22.27.14.48.34.63.6v-2.61h.72v6.1h-.64l-.08-.7a1.74 1.74 0 0 1-1.53.82Zm.08-.63a1.42 1.42 0 0 0 1.25-.75c.12-.24.18-.52.18-.84 0-.31-.06-.59-.18-.83a1.38 1.38 0 0 0-1.25-.75 1.42 1.42 0 0 0-1.27.75c-.12.24-.17.52-.17.83 0 .32.05.6.17.84a1.42 1.42 0 0 0 1.27.75Zm4.54.63c-.36 0-.65-.06-.88-.18a1.27 1.27 0 0 1-.68-1.14c0-.42.16-.75.48-.98.33-.23.78-.34 1.34-.34h1.15v-.07c0-.36-.1-.64-.3-.82a1.04 1.04 0 0 0-.77-.29c-.27 0-.5.07-.72.2a.9.9 0 0 0-.37.62h-.72c.02-.3.12-.56.3-.77.18-.22.4-.38.67-.48.27-.12.55-.18.84-.18.6 0 1.04.16 1.33.47.3.32.45.73.45 1.25v2.6h-.64l-.04-.75a1.8 1.8 0 0 1-.52.6c-.23.17-.54.26-.92.26Zm.1-.61c.28 0 .51-.07.71-.2.2-.15.35-.34.44-.57.1-.22.16-.47.16-.72h-1.08c-.42 0-.72.08-.9.22a.68.68 0 0 0-.24.53c0 .22.07.4.23.53.17.14.4.2.69.2Zm3.23 2.36 1.05-2.27h-.25l-1.67-3.8h.76l1.4 3.27 1.48-3.27h.73l-2.75 6.07Zm5.44-1.75c-.51 0-.93-.13-1.26-.38-.34-.26-.53-.6-.58-1.05h.73a1 1 0 0 0 .35.58c.18.16.44.24.76.24.3 0 .52-.07.66-.19a.58.58 0 0 0 .22-.45c0-.26-.1-.43-.28-.52a4.04 4.04 0 0 0-.77-.23 3 3 0 0 1-.69-.2c-.22-.07-.4-.2-.56-.35a.82.82 0 0 1-.23-.61c0-.37.13-.68.4-.9.28-.24.66-.37 1.13-.37.44 0 .8.12 1.09.35.29.22.46.54.5.95h-.7a.72.72 0 0 0-.28-.5.98.98 0 0 0-.63-.19c-.25 0-.45.06-.6.16a.5.5 0 0 0-.2.42c0 .17.09.3.27.4.19.1.43.18.73.24l.74.22c.24.09.43.21.58.38.15.15.23.38.23.68 0 .38-.15.7-.44.94-.29.25-.68.38-1.17.38Zm4.96 1.75 1.04-2.27h-.25L54 63.15h.77l1.39 3.27 1.48-3.27h.74l-2.75 6.07Zm5.58-1.75c-.4 0-.76-.1-1.08-.27a2.06 2.06 0 0 1-.75-.78 2.43 2.43 0 0 1-.26-1.17c0-.45.09-.83.28-1.16a2 2 0 0 1 .75-.76 2.1 2.1 0 0 1 1.07-.29 2.03 2.03 0 0 1 1.82 1.05c.18.33.28.71.28 1.16 0 .45-.1.84-.28 1.17a1.95 1.95 0 0 1-1.83 1.05Zm0-.63c.25 0 .48-.05.69-.17.2-.11.37-.29.5-.53.13-.24.2-.54.2-.9 0-.34-.07-.62-.2-.87-.13-.24-.3-.41-.5-.53a1.3 1.3 0 0 0-1.35 0c-.2.12-.38.3-.51.53-.13.25-.19.53-.19.88s.06.65.19.89a1.29 1.29 0 0 0 1.17.7Zm4.45.63c-.5 0-.9-.15-1.2-.46-.29-.3-.43-.78-.43-1.4v-2.46h.71v2.38c0 .87.36 1.31 1.08 1.31.37 0 .67-.13.9-.39.26-.26.38-.63.38-1.12v-2.18h.7v4.2h-.63l-.05-.74c-.14.26-.34.47-.6.62a1.6 1.6 0 0 1-.85.24Zm2.83-4.16.48-1.89h.8l-.78 1.89Zm1.91 4.05v-4.2h.66l.06.8c.12-.28.32-.5.58-.67.27-.16.6-.25 1-.25v.75h-.2c-.26 0-.49.05-.7.15-.2.08-.37.23-.5.43-.12.21-.18.5-.18.86v2.13Zm4.64.11a1.98 1.98 0 0 1-1.81-1.05 2.43 2.43 0 0 1-.27-1.17c0-.44.09-.82.26-1.16.18-.33.43-.58.74-.76.31-.2.67-.29 1.1-.29.4 0 .75.1 1.04.29.3.18.53.41.69.71.15.3.23.63.23.97v.41H72.9c.02.32.1.59.22.8.13.2.3.37.5.48.2.1.43.16.66.16.29 0 .53-.07.73-.2.2-.14.34-.32.42-.55h.72a1.88 1.88 0 0 1-1.88 1.36Zm0-3.82c-.35 0-.66.11-.92.32-.27.2-.41.5-.44.89h2.64a1.21 1.21 0 0 0-.4-.88 1.28 1.28 0 0 0-.88-.33Zm6.42 3.82c-.52 0-.94-.13-1.27-.38-.34-.26-.53-.6-.58-1.05h.73a1 1 0 0 0 .35.58c.19.16.44.24.76.24.3 0 .52-.07.66-.19a.58.58 0 0 0 .22-.45c0-.26-.1-.43-.28-.52a4.04 4.04 0 0 0-.77-.23 3 3 0 0 1-.69-.2c-.21-.07-.4-.2-.56-.35a.82.82 0 0 1-.23-.61c0-.37.13-.68.4-.9.28-.24.66-.37 1.13-.37.44 0 .81.12 1.1.35.28.22.45.54.5.95h-.71a.72.72 0 0 0-.28-.5.98.98 0 0 0-.63-.19c-.25 0-.45.06-.6.16a.5.5 0 0 0-.2.42c0 .17.1.3.27.4.19.1.43.18.74.24.25.07.5.14.73.22.24.09.43.21.58.38.15.15.23.38.23.68 0 .38-.15.7-.43.94-.3.25-.69.38-1.18.38Zm3.9-.11c-.38 0-.68-.1-.9-.28-.22-.2-.33-.53-.33-1.02v-2.31h-.73v-.6h.73l.1-1.01h.6v1.01h1.25v.6h-1.25v2.31c0 .27.06.45.16.55.11.1.3.14.58.14h.44v.6Zm1.87-5.14a.48.48 0 0 1-.48-.5c0-.14.04-.25.13-.33.1-.1.2-.14.35-.14.13 0 .25.04.34.14.1.08.16.2.16.33 0 .15-.06.26-.16.36a.5.5 0 0 1-.34.14Zm-.36 5.14v-4.2h.72v4.2Zm1.76 0v-6.11h.72v6.1Zm1.69 0v-6.11h.72v6.1Zm3.76 0v-4.2h.66l.03.74c.13-.27.32-.47.57-.62.26-.16.56-.24.88-.24.5 0 .9.16 1.19.46.3.3.45.77.45 1.4v2.46h-.72v-2.4c0-.87-.36-1.3-1.08-1.3-.36 0-.66.13-.9.4-.25.26-.36.63-.36 1.11v2.19Zm6.58.11c-.4 0-.75-.1-1.07-.27a2.06 2.06 0 0 1-.75-.78 2.43 2.43 0 0 1-.27-1.17c0-.45.1-.83.28-1.16a2 2 0 0 1 .75-.76 2.1 2.1 0 0 1 1.08-.29 2.03 2.03 0 0 1 1.81 1.05c.19.33.28.71.28 1.16 0 .45-.1.84-.28 1.17a1.95 1.95 0 0 1-1.83 1.05Zm0-.63c.25 0 .48-.05.7-.17.2-.11.37-.29.5-.53a2 2 0 0 0 .2-.9c0-.34-.08-.62-.2-.87-.13-.24-.3-.41-.5-.53a1.3 1.3 0 0 0-1.35 0c-.21.12-.39.3-.52.53-.12.25-.19.53-.19.88s.07.65.2.89c.12.24.3.42.5.53.2.12.42.17.66.17Zm4.42.52c-.4 0-.7-.1-.91-.28-.22-.2-.33-.53-.33-1.02v-2.31h-.73v-.6h.73l.1-1.01h.6v1.01h1.25v.6h-1.25v2.31c0 .27.06.45.16.55.11.1.3.14.58.14h.44v.6Zm5.4.11c-.4 0-.76-.1-1.08-.27a2.06 2.06 0 0 1-.75-.78 2.43 2.43 0 0 1-.26-1.17c0-.45.09-.83.28-1.16a2 2 0 0 1 .75-.76 2.1 2.1 0 0 1 1.08-.29 2.03 2.03 0 0 1 1.8 1.05c.2.33.29.71.29 1.16 0 .45-.1.84-.28 1.17a1.95 1.95 0 0 1-1.83 1.05Zm0-.63c.25 0 .48-.05.69-.17.2-.11.37-.29.5-.53.13-.24.2-.54.2-.9 0-.34-.07-.62-.2-.87-.13-.24-.3-.41-.5-.53a1.3 1.3 0 0 0-1.35 0c-.2.12-.38.3-.51.53-.13.25-.19.53-.19.88s.06.65.19.89a1.29 1.29 0 0 0 1.17.7Zm2.91.52v-6.11h.72v3.67l1.72-1.77h.87l-1.86 1.9 2.1 2.3h-.9l-1.93-2.18v2.19Zm5.46.11c-.36 0-.65-.06-.88-.18a1.27 1.27 0 0 1-.68-1.14c0-.42.16-.75.48-.98.33-.23.78-.34 1.34-.34h1.15v-.07c0-.36-.1-.64-.3-.82a1.04 1.04 0 0 0-.77-.29c-.27 0-.5.07-.72.2a.9.9 0 0 0-.37.62h-.72c.02-.3.12-.56.3-.77.18-.22.4-.38.67-.48.27-.12.55-.18.84-.18.6 0 1.04.16 1.33.47.3.32.45.73.45 1.25v2.6h-.64l-.04-.75a1.8 1.8 0 0 1-.52.6c-.23.17-.54.26-.92.26Zm.1-.61c.28 0 .51-.07.71-.2.2-.15.35-.34.44-.57.1-.22.16-.47.16-.72h-1.08c-.42 0-.72.08-.9.22a.68.68 0 0 0-.24.53c0 .22.07.4.23.53.16.14.4.2.69.2Zm3.23 2.36 1.05-2.27h-.25l-1.67-3.8h.76l1.4 3.27 1.48-3.27h.73l-2.75 6.07Zm2.98-.85.5-1.87h.74l-.74 1.87Zm6.2-.9c-.35 0-.65-.08-.92-.22a1.56 1.56 0 0 1-.61-.6l-.07.7h-.65v-6.1h.72v2.6a1.73 1.73 0 0 1 1.55-.8 2.03 2.03 0 0 1 1.81 1.07c.17.34.26.72.26 1.14 0 .43-.09.81-.26 1.14-.17.33-.41.59-.72.79-.32.18-.69.28-1.11.28Zm-.08-.63a1.42 1.42 0 0 0 1.27-.75c.12-.24.18-.52.18-.84 0-.31-.06-.59-.18-.83a1.4 1.4 0 0 0-1.27-.75 1.33 1.33 0 0 0-1.25.75c-.13.24-.19.52-.19.83 0 .32.06.6.19.84a1.36 1.36 0 0 0 1.25.75Zm4.51.63c-.5 0-.9-.15-1.2-.46-.3-.3-.44-.78-.44-1.4v-2.46h.72v2.38c0 .87.36 1.31 1.08 1.31.36 0 .66-.13.9-.39.25-.26.38-.63.38-1.12v-2.18h.7v4.2h-.64l-.05-.74c-.13.26-.33.47-.59.62a1.6 1.6 0 0 1-.86.24Zm4.79-.11c-.39 0-.69-.1-.9-.28-.23-.2-.34-.53-.34-1.02v-2.31h-.73v-.6h.73l.1-1.01h.6v1.01h1.26v.6h-1.25v2.31c0 .27.05.45.15.55.12.1.3.14.58.14h.44v.6Zm5.11.11c-.51 0-.94-.13-1.27-.38-.33-.26-.53-.6-.58-1.05h.74a1 1 0 0 0 .34.58c.19.16.44.24.77.24.3 0 .52-.07.65-.19a.58.58 0 0 0 .22-.45c0-.26-.1-.43-.28-.52a4.04 4.04 0 0 0-.77-.23 2.78 2.78 0 0 1-1.25-.55.82.82 0 0 1-.23-.61c0-.37.13-.68.4-.9a1.7 1.7 0 0 1 1.13-.37c.45 0 .81.12 1.1.35.28.22.45.54.5.95h-.7a.72.72 0 0 0-.29-.5.98.98 0 0 0-.62-.19c-.25 0-.45.06-.6.16a.5.5 0 0 0-.2.42c0 .17.09.3.26.4.2.1.43.18.74.24.26.07.5.14.73.22.24.09.43.21.58.38.16.15.24.38.24.68 0 .38-.15.7-.44.94-.3.25-.68.38-1.17.38Zm3.91-.11c-.39 0-.69-.1-.9-.28-.23-.2-.34-.53-.34-1.02v-2.31h-.73v-.6h.73l.1-1.01h.6v1.01h1.26v.6h-1.25v2.31c0 .27.05.45.15.55.12.1.3.14.58.14h.44v.6Zm1.86-5.14a.48.48 0 0 1-.48-.5c0-.14.04-.25.14-.33.09-.1.2-.14.34-.14.13 0 .25.04.34.14.1.08.16.2.16.33 0 .15-.06.26-.16.36-.1.09-.2.14-.34.14Zm-.36 5.14v-4.2h.72v4.2Zm1.76 0v-6.11h.72v6.1Zm1.7 0v-6.11h.72v6.1Zm5.42 0c-.38 0-.68-.1-.9-.28-.22-.2-.33-.53-.33-1.02v-2.31h-.73v-.6h.73l.1-1.01h.6v1.01h1.25v.6h-1.25v2.31c0 .27.05.45.16.55.11.1.3.14.58.14h.43v.6Zm1.43 0v-4.2h.65l.07.8c.12-.28.31-.5.57-.67.27-.16.6-.25 1-.25v.75h-.2c-.25 0-.48.05-.69.15-.2.08-.37.23-.5.43-.12.21-.18.5-.18.86v2.13Zm3.35 1.86 1.05-2.27h-.25l-1.67-3.8h.77l1.39 3.27 1.48-3.27h.74l-2.75 6.07Zm4.5-7a.48.48 0 0 1-.48-.5c0-.14.04-.25.14-.33.1-.1.2-.14.34-.14.13 0 .25.04.35.14.1.08.15.2.15.33 0 .15-.05.26-.15.36a.52.52 0 0 1-.35.14Zm-.36 5.14v-4.2h.72v4.2Zm1.76 0v-4.2h.66l.03.74a1.63 1.63 0 0 1 1.45-.86c.5 0 .9.16 1.2.46.3.3.45.77.45 1.4v2.46h-.72v-2.4c0-.87-.36-1.3-1.08-1.3-.37 0-.67.13-.9.4-.25.26-.37.63-.37 1.11v2.19Zm6.34-1.33c-.24 0-.46-.03-.66-.1l-.42.41c.06.04.14.08.23.11l.4.1.75.07c.56.05.96.17 1.2.4.25.21.37.5.37.85 0 .24-.07.47-.2.69-.14.23-.34.41-.6.55a3.02 3.02 0 0 1-2.06.06 1.4 1.4 0 0 1-.7-.45c-.17-.2-.25-.45-.25-.75a1.2 1.2 0 0 1 .61-1.03 2.6 2.6 0 0 1-.33-.16 1.68 1.68 0 0 1-.23-.2v-.2l.72-.73c-.34-.28-.5-.64-.5-1.1 0-.29.06-.54.18-.76.14-.22.33-.4.58-.54.25-.13.55-.2.9-.2.25 0 .47.03.66.1h1.57v.54l-.8.03a1.46 1.46 0 0 1-.53 2.13 2 2 0 0 1-.9.18Zm0-.58c.3 0 .54-.08.72-.23a.88.88 0 0 0 .26-.68.86.86 0 0 0-.26-.67 1.05 1.05 0 0 0-.72-.23c-.3 0-.55.08-.74.23-.18.16-.26.39-.26.67 0 .3.08.52.26.68.2.15.43.23.74.23ZM175 67.9c0 .29.12.5.35.63.24.14.53.22.89.22.35 0 .63-.08.84-.24a.72.72 0 0 0 .33-.6.64.64 0 0 0-.22-.49c-.15-.13-.42-.2-.81-.22a6.7 6.7 0 0 1-.81-.1c-.23.13-.39.27-.46.41a.86.86 0 0 0-.1.4Zm4.31-.5a.47.47 0 0 1-.34-.14.47.47 0 0 1-.14-.34c0-.13.04-.25.14-.34.09-.1.2-.14.34-.14.13 0 .25.04.34.14.1.09.14.2.14.34s-.04.25-.14.34c-.09.1-.2.14-.34.14Zm0 0"/><g clip-path="url(#a)"><g mask="url(#b)" transform="matrix(.15 0 0 .15 4.56 -63.8)"><mask id="b"/></g></g><g clip-path="url(#c)"><g mask="url(#d)" transform="matrix(.15 0 0 .15 .45 -8.76)"><mask id="d"/></g></g></svg>