<svg xmlns="http://www.w3.org/2000/svg" xmlns:xlink="http://www.w3.org/1999/xlink" width="250" zoomAndPan="magnify" viewBox="0 0 187.5 74.999997" height="100" preserveAspectRatio="xMidYMid meet" version="1.2"><defs><clipPath id="2105bda9a8"><path d="M 109.84375 26.886719 L 182.398438 26.886719 L 182.398438 43 L 109.84375 43 Z M 109.84375 26.886719 "/></clipPath><clipPath id="c5fe47832c"><path d="M 173 11 L 185 11 L 185 33 L 173 33 Z M 173 11 "/></clipPath><clipPath id="99798f088a"><path d="M 170.828125 28.652344 L 177.824219 10.503906 L 188.292969 14.539062 L 181.296875 32.6875 Z M 170.828125 28.652344 "/></clipPath><clipPath id="d6ab1e4320"><path d="M 162.609375 49.972656 L 177.945312 10.1875 L 191.902344 15.570312 L 176.570312 55.351562 Z M 162.609375 49.972656 "/></clipPath><clipPath id="2c2945e827"><path d="M 0 0.101562 L 106 0.101562 L 106 58 L 0 58 Z M 0 0.101562 "/></clipPath><filter x="0%" y="0%" width="100%" filterUnits="objectBoundingBox" id="c48821b70f" height="100%"><feColorMatrix values="0 0 0 0 1 0 0 0 0 1 0 0 0 0 1 0 0 0 1 0" type="matrix" in="SourceGraphic"/></filter><clipPath id="98baebccee"><path d="M 0 0.101562 L 104.722656 0.101562 L 104.722656 57.246094 L 0 57.246094 Z M 0 0.101562 "/></clipPath><clipPath id="6123c1c81b"><rect x="0" width="106" y="0" height="58"/></clipPath></defs><g id="fd19a5b7d7"><g style="fill:#ca0013;fill-opacity:1;"><g transform="translate(108.940402, 61.680908)"><path style="stroke:none" d="M 3.796875 0.125 C 2.796875 0.125 1.992188 -0.1875 1.390625 -0.8125 C 0.796875 -1.4375 0.5 -2.296875 0.5 -3.390625 L 0.5 -9.71875 C 0.5 -11.070312 0.769531 -12.09375 1.3125 -12.78125 C 1.851562 -13.476562 2.703125 -13.828125 3.859375 -13.828125 C 4.867188 -13.828125 5.679688 -13.550781 6.296875 -13 C 6.921875 -12.445312 7.234375 -11.648438 7.234375 -10.609375 L 7.234375 -8.25 L 4.5 -8.25 L 4.5 -10.28125 C 4.5 -10.664062 4.453125 -10.929688 4.359375 -11.078125 C 4.265625 -11.234375 4.097656 -11.3125 3.859375 -11.3125 C 3.617188 -11.3125 3.453125 -11.222656 3.359375 -11.046875 C 3.265625 -10.878906 3.21875 -10.632812 3.21875 -10.3125 L 3.21875 -3.4375 C 3.21875 -3.070312 3.269531 -2.804688 3.375 -2.640625 C 3.488281 -2.472656 3.648438 -2.390625 3.859375 -2.390625 C 4.285156 -2.390625 4.5 -2.738281 4.5 -3.4375 L 4.5 -5.90625 L 7.265625 -5.90625 L 7.265625 -3.3125 C 7.265625 -1.019531 6.109375 0.125 3.796875 0.125 Z M 3.796875 0.125 "/></g></g><g style="fill:#ca0013;fill-opacity:1;"><g transform="translate(116.661979, 61.680908)"><path style="stroke:none" d="M 3.875 0.125 C 2.769531 0.125 1.929688 -0.207031 1.359375 -0.875 C 0.785156 -1.550781 0.5 -2.503906 0.5 -3.734375 L 0.5 -10.265625 C 0.5 -11.441406 0.785156 -12.328125 1.359375 -12.921875 C 1.929688 -13.523438 2.769531 -13.828125 3.875 -13.828125 C 4.976562 -13.828125 5.816406 -13.523438 6.390625 -12.921875 C 6.972656 -12.328125 7.265625 -11.441406 7.265625 -10.265625 L 7.265625 -3.734375 C 7.265625 -2.492188 6.972656 -1.539062 6.390625 -0.875 C 5.816406 -0.207031 4.976562 0.125 3.875 0.125 Z M 3.875 -2.390625 C 4.125 -2.390625 4.289062 -2.492188 4.375 -2.703125 C 4.457031 -2.921875 4.5 -3.222656 4.5 -3.609375 L 4.5 -10.3125 C 4.5 -10.601562 4.457031 -10.84375 4.375 -11.03125 C 4.300781 -11.21875 4.140625 -11.3125 3.890625 -11.3125 C 3.429688 -11.3125 3.203125 -10.96875 3.203125 -10.28125 L 3.203125 -3.59375 C 3.203125 -3.195312 3.25 -2.894531 3.34375 -2.6875 C 3.445312 -2.488281 3.625 -2.390625 3.875 -2.390625 Z M 3.875 -2.390625 "/></g></g><g style="fill:#ca0013;fill-opacity:1;"><g transform="translate(124.574998, 61.680908)"><path style="stroke:none" d="M 0.609375 0 L 0.609375 -13.703125 L 3.34375 -13.703125 L 3.34375 -2.328125 L 6.171875 -2.328125 L 6.171875 0 Z M 0.609375 0 "/></g></g><g style="fill:#ca0013;fill-opacity:1;"><g transform="translate(131.068146, 61.680908)"><path style="stroke:none" d="M 0.609375 0 L 0.609375 -13.703125 L 3.34375 -13.703125 L 3.34375 -2.328125 L 6.171875 -2.328125 L 6.171875 0 Z M 0.609375 0 "/></g></g><g style="fill:#ca0013;fill-opacity:1;"><g transform="translate(137.561295, 61.680908)"><path style="stroke:none" d="M 0.609375 0 L 0.609375 -13.703125 L 6.09375 -13.703125 L 6.09375 -11.0625 L 3.390625 -11.0625 L 3.390625 -8.390625 L 5.984375 -8.390625 L 5.984375 -5.8125 L 3.390625 -5.8125 L 3.390625 -2.671875 L 6.265625 -2.671875 L 6.265625 0 Z M 0.609375 0 "/></g></g><g style="fill:#ca0013;fill-opacity:1;"><g transform="translate(144.293742, 61.680908)"><path style="stroke:none" d="M 3.796875 0.125 C 2.796875 0.125 1.992188 -0.1875 1.390625 -0.8125 C 0.796875 -1.4375 0.5 -2.296875 0.5 -3.390625 L 0.5 -9.71875 C 0.5 -11.070312 0.769531 -12.09375 1.3125 -12.78125 C 1.851562 -13.476562 2.703125 -13.828125 3.859375 -13.828125 C 4.867188 -13.828125 5.679688 -13.550781 6.296875 -13 C 6.921875 -12.445312 7.234375 -11.648438 7.234375 -10.609375 L 7.234375 -8.25 L 4.5 -8.25 L 4.5 -10.28125 C 4.5 -10.664062 4.453125 -10.929688 4.359375 -11.078125 C 4.265625 -11.234375 4.097656 -11.3125 3.859375 -11.3125 C 3.617188 -11.3125 3.453125 -11.222656 3.359375 -11.046875 C 3.265625 -10.878906 3.21875 -10.632812 3.21875 -10.3125 L 3.21875 -3.4375 C 3.21875 -3.070312 3.269531 -2.804688 3.375 -2.640625 C 3.488281 -2.472656 3.648438 -2.390625 3.859375 -2.390625 C 4.285156 -2.390625 4.5 -2.738281 4.5 -3.4375 L 4.5 -5.90625 L 7.265625 -5.90625 L 7.265625 -3.3125 C 7.265625 -1.019531 6.109375 0.125 3.796875 0.125 Z M 3.796875 0.125 "/></g></g><g style="fill:#ca0013;fill-opacity:1;"><g transform="translate(152.015319, 61.680908)"><path style="stroke:none" d="M 1.78125 0 L 1.78125 -11.078125 L 0.15625 -11.078125 L 0.15625 -13.703125 L 6.15625 -13.703125 L 6.15625 -11.078125 L 4.53125 -11.078125 L 4.53125 0 Z M 1.78125 0 "/></g></g><g style="fill:#ca0013;fill-opacity:1;"><g transform="translate(158.492511, 61.680908)"><path style="stroke:none" d="M 0.484375 0 L 0.484375 -13.703125 L 3.125 -13.703125 L 3.125 0 Z M 0.484375 0 "/></g></g><g style="fill:#ca0013;fill-opacity:1;"><g transform="translate(162.273547, 61.680908)"><path style="stroke:none" d="M 3.875 0.125 C 2.769531 0.125 1.929688 -0.207031 1.359375 -0.875 C 0.785156 -1.550781 0.5 -2.503906 0.5 -3.734375 L 0.5 -10.265625 C 0.5 -11.441406 0.785156 -12.328125 1.359375 -12.921875 C 1.929688 -13.523438 2.769531 -13.828125 3.875 -13.828125 C 4.976562 -13.828125 5.816406 -13.523438 6.390625 -12.921875 C 6.972656 -12.328125 7.265625 -11.441406 7.265625 -10.265625 L 7.265625 -3.734375 C 7.265625 -2.492188 6.972656 -1.539062 6.390625 -0.875 C 5.816406 -0.207031 4.976562 0.125 3.875 0.125 Z M 3.875 -2.390625 C 4.125 -2.390625 4.289062 -2.492188 4.375 -2.703125 C 4.457031 -2.921875 4.5 -3.222656 4.5 -3.609375 L 4.5 -10.3125 C 4.5 -10.601562 4.457031 -10.84375 4.375 -11.03125 C 4.300781 -11.21875 4.140625 -11.3125 3.890625 -11.3125 C 3.429688 -11.3125 3.203125 -10.96875 3.203125 -10.28125 L 3.203125 -3.59375 C 3.203125 -3.195312 3.25 -2.894531 3.34375 -2.6875 C 3.445312 -2.488281 3.625 -2.390625 3.875 -2.390625 Z M 3.875 -2.390625 "/></g></g><g style="fill:#ca0013;fill-opacity:1;"><g transform="translate(170.186565, 61.680908)"><path style="stroke:none" d="M 0.609375 0 L 0.609375 -13.703125 L 3.4375 -13.703125 L 4.6875 -7.140625 L 4.6875 -13.703125 L 7.34375 -13.703125 L 7.34375 0 L 4.65625 0 L 3.28125 -6.859375 L 3.28125 0 Z M 0.609375 0 "/></g></g><g clip-rule="nonzero" clip-path="url(#2105bda9a8)"><path style=" stroke:none;fill-rule:nonzero;fill:#ca0013;fill-opacity:1;" d="M 182.03125 26.886719 C 180.925781 29.871094 179.25 32.5 177.003906 34.769531 C 174.753906 37.042969 172.046875 38.777344 168.878906 39.96875 C 165.710938 41.164062 162.132812 41.746094 158.140625 41.722656 C 154.144531 41.703125 149.832031 40.886719 145.195312 39.28125 C 142.257812 38.269531 139.550781 37.570312 137.070312 37.179688 C 134.59375 36.789062 132.238281 36.675781 130.015625 36.835938 C 127.789062 36.996094 125.632812 37.410156 123.542969 38.074219 C 121.453125 38.742188 119.308594 39.578125 117.105469 40.589844 C 116.371094 40.910156 115.707031 41.230469 115.109375 41.550781 C 114.511719 41.875 113.9375 42.09375 113.386719 42.207031 C 112.835938 42.320312 112.253906 42.285156 111.632812 42.101562 C 111.199219 41.976562 110.714844 41.730469 110.179688 41.378906 C 110.121094 41.390625 110.0625 41.394531 109.996094 41.398438 C 109.957031 41.4375 109.914062 41.472656 109.867188 41.5 L 109.867188 41.871094 C 109.96875 41.933594 110.046875 42.019531 110.105469 42.117188 C 110.679688 42.464844 111.214844 42.691406 111.699219 42.792969 C 112.367188 42.929688 112.996094 42.941406 113.59375 42.824219 C 114.191406 42.710938 114.800781 42.503906 115.417969 42.207031 C 116.039062 41.90625 116.738281 41.574219 117.519531 41.207031 C 119.539062 40.289062 121.570312 39.511719 123.613281 38.867188 C 125.652344 38.226562 127.789062 37.8125 130.015625 37.628906 C 132.242188 37.445312 134.582031 37.558594 137.039062 37.972656 C 139.492188 38.386719 142.144531 39.1875 144.988281 40.382812 C 148.339844 41.757812 151.953125 42.527344 155.832031 42.6875 C 159.710938 42.847656 163.429688 42.390625 166.984375 41.3125 C 170.542969 40.234375 173.710938 38.511719 176.488281 36.148438 C 179.265625 33.785156 181.226562 30.742188 182.375 27.023438 Z M 182.03125 26.886719 "/></g><g style="fill:#ca0013;fill-opacity:1;"><g transform="translate(1.710702, 46.220729)"><path style="stroke:none" d="M 22.671875 -5.3125 C 22.742188 -5.207031 22.769531 -5.09375 22.75 -4.96875 C 22.726562 -4.851562 22.660156 -4.757812 22.546875 -4.6875 C 20.148438 -2.96875 17.960938 -1.34375 15.984375 0.1875 C 16.179688 0.820312 16.207031 1.519531 16.0625 2.28125 C 15.8125 3.59375 15.363281 4.816406 14.71875 5.953125 C 14.082031 7.085938 13.332031 8.125 12.46875 9.0625 C 11.613281 10 10.71875 10.800781 9.78125 11.46875 C 8.84375 12.144531 7.945312 12.671875 7.09375 13.046875 C 6.25 13.429688 5.515625 13.644531 4.890625 13.6875 C 4.796875 13.707031 4.710938 13.71875 4.640625 13.71875 C 4.160156 13.71875 3.816406 13.617188 3.609375 13.421875 C 3.410156 13.234375 3.28125 13.050781 3.21875 12.875 C 2.863281 11.90625 3.695312 10.300781 5.71875 8.0625 C 7.738281 5.820312 10.796875 3.101562 14.890625 -0.09375 C 14.378906 -1.007812 13.351562 -1.851562 11.8125 -2.625 C 10.28125 -3.394531 8.242188 -4.289062 5.703125 -5.3125 C 5.410156 -5.4375 5.109375 -5.5625 4.796875 -5.6875 C 4.492188 -5.8125 4.179688 -5.941406 3.859375 -6.078125 C 2.742188 -6.546875 1.96875 -7.171875 1.53125 -7.953125 C 1.09375 -8.742188 1.039062 -9.648438 1.375 -10.671875 C 1.613281 -11.460938 2.039062 -12.265625 2.65625 -13.078125 C 3.28125 -13.898438 4.03125 -14.71875 4.90625 -15.53125 C 5.789062 -16.34375 6.75 -17.113281 7.78125 -17.84375 C 8.820312 -18.582031 9.882812 -19.253906 10.96875 -19.859375 C 12.050781 -20.460938 13.109375 -20.972656 14.140625 -21.390625 C 15.179688 -21.804688 16.140625 -22.097656 17.015625 -22.265625 C 17.890625 -22.441406 18.628906 -22.460938 19.234375 -22.328125 C 19.484375 -22.265625 19.757812 -22.144531 20.0625 -21.96875 C 20.363281 -21.800781 20.601562 -21.523438 20.78125 -21.140625 C 20.957031 -20.765625 21.003906 -20.242188 20.921875 -19.578125 C 20.898438 -19.453125 20.84375 -19.351562 20.75 -19.28125 C 20.65625 -19.21875 20.546875 -19.195312 20.421875 -19.21875 C 20.296875 -19.226562 20.191406 -19.28125 20.109375 -19.375 C 20.035156 -19.476562 20.007812 -19.59375 20.03125 -19.71875 C 20.113281 -20.375 20.039062 -20.804688 19.8125 -21.015625 C 19.582031 -21.234375 19.328125 -21.375 19.046875 -21.4375 C 18.460938 -21.582031 17.6875 -21.535156 16.71875 -21.296875 C 15.75 -21.066406 14.664062 -20.675781 13.46875 -20.125 C 12.28125 -19.582031 11.0625 -18.90625 9.8125 -18.09375 C 8.476562 -17.257812 7.28125 -16.390625 6.21875 -15.484375 C 5.164062 -14.578125 4.296875 -13.691406 3.609375 -12.828125 C 2.921875 -11.960938 2.460938 -11.160156 2.234375 -10.421875 C 1.722656 -8.828125 2.378906 -7.648438 4.203125 -6.890625 C 4.523438 -6.765625 4.835938 -6.640625 5.140625 -6.515625 C 5.441406 -6.390625 5.75 -6.269531 6.0625 -6.15625 C 7.625 -5.519531 9.039062 -4.914062 10.3125 -4.34375 C 11.59375 -3.78125 12.679688 -3.203125 13.578125 -2.609375 C 14.484375 -2.023438 15.160156 -1.375 15.609375 -0.65625 C 17.566406 -2.164062 19.710938 -3.75 22.046875 -5.40625 C 22.148438 -5.476562 22.257812 -5.503906 22.375 -5.484375 C 22.488281 -5.460938 22.585938 -5.40625 22.671875 -5.3125 Z M 15.203125 2.09375 C 15.296875 1.625 15.300781 1.1875 15.21875 0.78125 C 11.925781 3.363281 9.3125 5.640625 7.375 7.609375 C 6.25 8.765625 5.382812 9.796875 4.78125 10.703125 C 4.175781 11.609375 3.9375 12.234375 4.0625 12.578125 C 4.101562 12.703125 4.207031 12.773438 4.375 12.796875 C 4.550781 12.816406 4.703125 12.820312 4.828125 12.8125 C 5.335938 12.78125 5.976562 12.582031 6.75 12.21875 C 7.519531 11.863281 8.335938 11.375 9.203125 10.75 C 10.078125 10.125 10.921875 9.378906 11.734375 8.515625 C 12.554688 7.648438 13.273438 6.675781 13.890625 5.59375 C 14.515625 4.507812 14.953125 3.34375 15.203125 2.09375 Z M 15.203125 2.09375 "/></g></g><g style="fill:#ca0013;fill-opacity:1;"><g transform="translate(23.46577, 46.220729)"><path style="stroke:none" d="M 19.578125 -13.6875 C 19.660156 -13.59375 19.691406 -13.484375 19.671875 -13.359375 C 19.660156 -13.234375 19.597656 -13.132812 19.484375 -13.0625 C 19.304688 -12.9375 19.128906 -12.945312 18.953125 -13.09375 C 18.753906 -13.164062 18.296875 -13.21875 17.578125 -13.25 C 16.859375 -13.28125 15.957031 -13.296875 14.875 -13.296875 C 13.789062 -13.304688 12.597656 -13.300781 11.296875 -13.28125 C 9.992188 -13.269531 8.660156 -13.253906 7.296875 -13.234375 C 5.929688 -13.210938 4.601562 -13.1875 3.3125 -13.15625 C 2.832031 -11.144531 2.328125 -8.957031 1.796875 -6.59375 C 1.273438 -4.238281 0.757812 -1.847656 0.25 0.578125 C -0.414062 3.765625 -0.925781 6.378906 -1.28125 8.421875 C -1.644531 10.460938 -1.882812 11.941406 -2 12.859375 C -1.96875 12.859375 -1.9375 12.863281 -1.90625 12.875 C -1.78125 12.90625 -1.691406 12.976562 -1.640625 13.09375 C -1.597656 13.207031 -1.597656 13.320312 -1.640625 13.4375 C -1.734375 13.695312 -1.835938 13.9375 -1.953125 14.15625 C -2.078125 14.382812 -2.238281 14.5 -2.4375 14.5 C -2.476562 14.5 -2.53125 14.492188 -2.59375 14.484375 C -2.8125 14.398438 -2.929688 14.226562 -2.953125 13.96875 C -2.984375 13.71875 -2.96875 13.367188 -2.90625 12.921875 C -2.84375 12.273438 -2.703125 11.335938 -2.484375 10.109375 C -2.296875 8.972656 -2.054688 7.640625 -1.765625 6.109375 C -1.472656 4.578125 -1.132812 2.894531 -0.75 1.0625 C -0.238281 -1.40625 0.285156 -3.863281 0.828125 -6.3125 C 1.367188 -8.757812 1.890625 -11.035156 2.390625 -13.140625 C 1.648438 -13.117188 0.945312 -13.097656 0.28125 -13.078125 C -0.382812 -13.066406 -0.988281 -13.054688 -1.53125 -13.046875 C -2.570312 -13.015625 -3.476562 -12.988281 -4.25 -12.96875 C -5.019531 -12.957031 -5.566406 -12.953125 -5.890625 -12.953125 C -6.015625 -12.953125 -6.117188 -12.992188 -6.203125 -13.078125 C -6.285156 -13.160156 -6.328125 -13.265625 -6.328125 -13.390625 C -6.328125 -13.515625 -6.285156 -13.617188 -6.203125 -13.703125 C -6.117188 -13.785156 -6.015625 -13.828125 -5.890625 -13.828125 C -5.566406 -13.828125 -5.019531 -13.835938 -4.25 -13.859375 C -3.488281 -13.890625 -2.585938 -13.914062 -1.546875 -13.9375 C -0.804688 -13.957031 -0.09375 -13.972656 0.59375 -13.984375 C 1.289062 -14.003906 1.96875 -14.019531 2.625 -14.03125 C 2.851562 -15.019531 3.078125 -15.953125 3.296875 -16.828125 C 3.523438 -17.703125 3.738281 -18.503906 3.9375 -19.234375 C 3.96875 -19.359375 4.035156 -19.453125 4.140625 -19.515625 C 4.253906 -19.578125 4.367188 -19.59375 4.484375 -19.5625 C 4.597656 -19.53125 4.6875 -19.457031 4.75 -19.34375 C 4.8125 -19.238281 4.828125 -19.125 4.796875 -19 C 4.429688 -17.625 4.007812 -15.976562 3.53125 -14.0625 C 5.9375 -14.101562 8 -14.132812 9.71875 -14.15625 C 11.4375 -14.1875 12.875 -14.203125 14.03125 -14.203125 C 15.195312 -14.203125 16.140625 -14.1875 16.859375 -14.15625 C 17.578125 -14.125 18.117188 -14.085938 18.484375 -14.046875 C 18.859375 -14.003906 19.125 -13.953125 19.28125 -13.890625 C 19.4375 -13.835938 19.535156 -13.769531 19.578125 -13.6875 Z M 19.578125 -13.6875 "/></g></g><g style="fill:#ca0013;fill-opacity:1;"><g transform="translate(26.550442, 46.220729)"><path style="stroke:none" d="M 6.796875 -5.296875 C 6.910156 -5.234375 6.976562 -5.140625 7 -5.015625 C 7.019531 -4.890625 7 -4.769531 6.9375 -4.65625 C 6.644531 -4.195312 6.273438 -3.679688 5.828125 -3.109375 C 5.378906 -2.535156 4.890625 -1.988281 4.359375 -1.46875 C 3.835938 -0.957031 3.316406 -0.53125 2.796875 -0.1875 C 2.273438 0.15625 1.800781 0.328125 1.375 0.328125 C 1.1875 0.328125 1.019531 0.296875 0.875 0.234375 C 0.351562 0.00390625 0.0664062 -0.550781 0.015625 -1.4375 C -0.0351562 -2.332031 0.144531 -3.59375 0.5625 -5.21875 C 0.59375 -5.34375 0.660156 -5.4375 0.765625 -5.5 C 0.867188 -5.5625 0.976562 -5.578125 1.09375 -5.546875 C 1.21875 -5.515625 1.3125 -5.441406 1.375 -5.328125 C 1.4375 -5.222656 1.453125 -5.117188 1.421875 -5.015625 C 1.171875 -4.023438 1.015625 -3.238281 0.953125 -2.65625 C 0.890625 -2.070312 0.875 -1.632812 0.90625 -1.34375 C 0.945312 -1.050781 1.003906 -0.851562 1.078125 -0.75 C 1.160156 -0.65625 1.210938 -0.609375 1.234375 -0.609375 C 1.429688 -0.515625 1.722656 -0.578125 2.109375 -0.796875 C 2.492188 -1.023438 2.925781 -1.359375 3.40625 -1.796875 C 3.882812 -2.234375 4.367188 -2.742188 4.859375 -3.328125 C 5.347656 -3.910156 5.785156 -4.519531 6.171875 -5.15625 C 6.242188 -5.257812 6.335938 -5.320312 6.453125 -5.34375 C 6.578125 -5.375 6.691406 -5.359375 6.796875 -5.296875 Z M 1.328125 -7.140625 C 1.015625 -7.160156 0.851562 -7.25 0.84375 -7.40625 C 0.832031 -7.570312 0.898438 -7.738281 1.046875 -7.90625 C 1.203125 -8.082031 1.359375 -8.203125 1.515625 -8.265625 C 1.753906 -8.335938 1.929688 -8.316406 2.046875 -8.203125 C 2.171875 -8.097656 2.226562 -7.960938 2.21875 -7.796875 C 2.207031 -7.628906 2.128906 -7.472656 1.984375 -7.328125 C 1.835938 -7.191406 1.617188 -7.128906 1.328125 -7.140625 Z M 1.328125 -7.140625 "/></g></g><g style="fill:#ca0013;fill-opacity:1;"><g transform="translate(32.418282, 46.220729)"><path style="stroke:none" d="M 6.828125 -21.734375 C 7.023438 -21.441406 7.023438 -20.847656 6.828125 -19.953125 C 6.640625 -19.054688 6.242188 -17.945312 5.640625 -16.625 C 5.035156 -15.300781 4.226562 -13.835938 3.21875 -12.234375 C 3.207031 -12.210938 3.191406 -12.195312 3.171875 -12.1875 C 2.773438 -10.539062 2.378906 -8.867188 1.984375 -7.171875 C 1.585938 -5.472656 1.210938 -3.800781 0.859375 -2.15625 C 0.503906 -0.519531 0.179688 1.019531 -0.109375 2.46875 C -0.410156 3.914062 -0.664062 5.203125 -0.875 6.328125 C -1.082031 7.460938 -1.234375 8.367188 -1.328125 9.046875 C -1.304688 9.046875 -1.289062 9.046875 -1.28125 9.046875 C -1.15625 9.097656 -1.0625 9.175781 -1 9.28125 C -0.945312 9.382812 -0.945312 9.5 -1 9.625 C -1.101562 9.914062 -1.210938 10.179688 -1.328125 10.421875 C -1.453125 10.671875 -1.613281 10.796875 -1.8125 10.796875 C -1.851562 10.796875 -1.90625 10.785156 -1.96875 10.765625 C -2.113281 10.722656 -2.210938 10.625 -2.265625 10.46875 C -2.328125 10.320312 -2.335938 10.03125 -2.296875 9.59375 C -2.253906 9.15625 -2.15625 8.476562 -2 7.5625 C -1.71875 5.894531 -1.300781 3.710938 -0.75 1.015625 C -0.34375 -0.867188 0.078125 -2.789062 0.515625 -4.75 C 0.960938 -6.707031 1.398438 -8.59375 1.828125 -10.40625 C 2.265625 -12.226562 2.6875 -13.878906 3.09375 -15.359375 C 3.164062 -15.648438 3.28125 -16.054688 3.4375 -16.578125 C 3.59375 -17.109375 3.769531 -17.675781 3.96875 -18.28125 C 4.164062 -18.882812 4.390625 -19.460938 4.640625 -20.015625 C 4.890625 -20.578125 5.144531 -21.039062 5.40625 -21.40625 C 5.664062 -21.769531 5.925781 -21.972656 6.1875 -22.015625 C 6.457031 -22.066406 6.671875 -21.972656 6.828125 -21.734375 Z M 3.984375 -15.296875 C 4.734375 -16.679688 5.257812 -17.835938 5.5625 -18.765625 C 5.863281 -19.691406 6.035156 -20.367188 6.078125 -20.796875 C 5.859375 -20.484375 5.5625 -19.894531 5.1875 -19.03125 C 4.820312 -18.175781 4.421875 -16.929688 3.984375 -15.296875 Z M 3.984375 -15.296875 "/></g></g><g style="fill:#ca0013;fill-opacity:1;"><g transform="translate(35.943622, 46.220729)"><path style="stroke:none" d="M 6.828125 -21.734375 C 7.023438 -21.441406 7.023438 -20.847656 6.828125 -19.953125 C 6.640625 -19.054688 6.242188 -17.945312 5.640625 -16.625 C 5.035156 -15.300781 4.226562 -13.835938 3.21875 -12.234375 C 3.207031 -12.210938 3.191406 -12.195312 3.171875 -12.1875 C 2.773438 -10.539062 2.378906 -8.867188 1.984375 -7.171875 C 1.585938 -5.472656 1.210938 -3.800781 0.859375 -2.15625 C 0.503906 -0.519531 0.179688 1.019531 -0.109375 2.46875 C -0.410156 3.914062 -0.664062 5.203125 -0.875 6.328125 C -1.082031 7.460938 -1.234375 8.367188 -1.328125 9.046875 C -1.304688 9.046875 -1.289062 9.046875 -1.28125 9.046875 C -1.15625 9.097656 -1.0625 9.175781 -1 9.28125 C -0.945312 9.382812 -0.945312 9.5 -1 9.625 C -1.101562 9.914062 -1.210938 10.179688 -1.328125 10.421875 C -1.453125 10.671875 -1.613281 10.796875 -1.8125 10.796875 C -1.851562 10.796875 -1.90625 10.785156 -1.96875 10.765625 C -2.113281 10.722656 -2.210938 10.625 -2.265625 10.46875 C -2.328125 10.320312 -2.335938 10.03125 -2.296875 9.59375 C -2.253906 9.15625 -2.15625 8.476562 -2 7.5625 C -1.71875 5.894531 -1.300781 3.710938 -0.75 1.015625 C -0.34375 -0.867188 0.078125 -2.789062 0.515625 -4.75 C 0.960938 -6.707031 1.398438 -8.59375 1.828125 -10.40625 C 2.265625 -12.226562 2.6875 -13.878906 3.09375 -15.359375 C 3.164062 -15.648438 3.28125 -16.054688 3.4375 -16.578125 C 3.59375 -17.109375 3.769531 -17.675781 3.96875 -18.28125 C 4.164062 -18.882812 4.390625 -19.460938 4.640625 -20.015625 C 4.890625 -20.578125 5.144531 -21.039062 5.40625 -21.40625 C 5.664062 -21.769531 5.925781 -21.972656 6.1875 -22.015625 C 6.457031 -22.066406 6.671875 -21.972656 6.828125 -21.734375 Z M 3.984375 -15.296875 C 4.734375 -16.679688 5.257812 -17.835938 5.5625 -18.765625 C 5.863281 -19.691406 6.035156 -20.367188 6.078125 -20.796875 C 5.859375 -20.484375 5.5625 -19.894531 5.1875 -19.03125 C 4.820312 -18.175781 4.421875 -16.929688 3.984375 -15.296875 Z M 3.984375 -15.296875 "/></g></g><g style="fill:#ca0013;fill-opacity:1;"><g transform="translate(39.468962, 46.220729)"><path style="stroke:none" d=""/></g></g><g style="fill:#ca0013;fill-opacity:1;"><g transform="translate(46.589227, 46.220729)"><path style="stroke:none" d="M 20.75 -9.265625 C 20.78125 -9.140625 20.765625 -9.019531 20.703125 -8.90625 C 20.648438 -8.800781 20.570312 -8.722656 20.46875 -8.671875 C 19.75 -8.460938 18.898438 -8.207031 17.921875 -7.90625 C 16.941406 -7.601562 15.863281 -7.273438 14.6875 -6.921875 C 14.53125 -6.066406 14.367188 -5.21875 14.203125 -4.375 C 14.046875 -3.539062 13.898438 -2.734375 13.765625 -1.953125 C 13.390625 -0.015625 13.0625 1.675781 12.78125 3.125 C 12.507812 4.582031 12.300781 5.632812 12.15625 6.28125 C 12.113281 6.519531 11.96875 6.640625 11.71875 6.640625 C 11.6875 6.640625 11.65625 6.640625 11.625 6.640625 C 11.519531 6.609375 11.429688 6.539062 11.359375 6.4375 C 11.285156 6.332031 11.265625 6.222656 11.296875 6.109375 C 11.378906 5.671875 11.5 5.046875 11.65625 4.234375 C 11.820312 3.421875 12.007812 2.46875 12.21875 1.375 C 12.425781 0.289062 12.644531 -0.867188 12.875 -2.109375 C 13.019531 -2.816406 13.160156 -3.550781 13.296875 -4.3125 C 13.429688 -5.070312 13.578125 -5.847656 13.734375 -6.640625 C 13.722656 -6.617188 13.710938 -6.609375 13.703125 -6.609375 C 13.691406 -6.609375 13.679688 -6.609375 13.671875 -6.609375 C 12.203125 -6.160156 10.632812 -5.6875 8.96875 -5.1875 C 7.300781 -4.6875 5.65625 -4.179688 4.03125 -3.671875 C 3.476562 -1.003906 3.015625 1.273438 2.640625 3.171875 C 2.273438 5.078125 1.972656 6.664062 1.734375 7.9375 C 1.492188 9.21875 1.304688 10.242188 1.171875 11.015625 C 1.035156 11.796875 0.9375 12.382812 0.875 12.78125 C 1.144531 12.894531 1.234375 13.082031 1.140625 13.34375 C 1.054688 13.59375 0.960938 13.8125 0.859375 14 C 0.765625 14.195312 0.625 14.296875 0.4375 14.296875 C 0.394531 14.296875 0.34375 14.285156 0.28125 14.265625 C 0.0507812 14.203125 -0.0664062 14.039062 -0.078125 13.78125 C -0.0859375 13.519531 -0.0546875 13.132812 0.015625 12.625 C 0.109375 11.914062 0.273438 10.898438 0.515625 9.578125 C 0.929688 7.304688 1.546875 4.132812 2.359375 0.0625 C 2.472656 -0.488281 2.585938 -1.050781 2.703125 -1.625 C 2.816406 -2.207031 2.9375 -2.785156 3.0625 -3.359375 C 2.425781 -3.160156 1.804688 -2.960938 1.203125 -2.765625 C 0.597656 -2.578125 0.0078125 -2.382812 -0.5625 -2.1875 C -2.332031 -1.59375 -3.742188 -1.097656 -4.796875 -0.703125 C -5.847656 -0.304688 -6.632812 0.0078125 -7.15625 0.25 C -7.6875 0.488281 -8.054688 0.675781 -8.265625 0.8125 C -8.109375 0.914062 -8.046875 1.0625 -8.078125 1.25 C -8.117188 1.5 -8.265625 1.625 -8.515625 1.625 C -8.546875 1.625 -8.578125 1.613281 -8.609375 1.59375 C -8.921875 1.539062 -9.125 1.445312 -9.21875 1.3125 C -9.320312 1.175781 -9.378906 1.046875 -9.390625 0.921875 C -9.390625 0.773438 -9.332031 0.625 -9.21875 0.46875 C -9.101562 0.3125 -8.867188 0.128906 -8.515625 -0.078125 C -8.160156 -0.285156 -7.632812 -0.535156 -6.9375 -0.828125 C -5.632812 -1.367188 -3.769531 -2.050781 -1.34375 -2.875 C -0.613281 -3.101562 0.128906 -3.34375 0.890625 -3.59375 C 1.660156 -3.84375 2.445312 -4.097656 3.25 -4.359375 C 3.539062 -5.785156 3.828125 -7.171875 4.109375 -8.515625 C 4.390625 -9.859375 4.648438 -11.113281 4.890625 -12.28125 C 5.140625 -13.445312 5.359375 -14.472656 5.546875 -15.359375 C 5.734375 -16.253906 5.878906 -16.957031 5.984375 -17.46875 L 6.109375 -17.9375 C 6.242188 -18.601562 6.304688 -19.09375 6.296875 -19.40625 C 6.285156 -19.726562 6.257812 -19.9375 6.21875 -20.03125 C 6.175781 -20.132812 6.15625 -20.1875 6.15625 -20.1875 C 6.125 -20.195312 6.015625 -20.175781 5.828125 -20.125 C 5.648438 -20.070312 5.378906 -19.882812 5.015625 -19.5625 C 4.472656 -19.09375 3.898438 -18.460938 3.296875 -17.671875 C 2.703125 -16.890625 2.175781 -16.070312 1.71875 -15.21875 C 1.21875 -14.289062 0.867188 -13.457031 0.671875 -12.71875 C 0.484375 -11.988281 0.46875 -11.429688 0.625 -11.046875 C 0.65625 -10.960938 0.75 -10.835938 0.90625 -10.671875 C 1.070312 -10.515625 1.421875 -10.453125 1.953125 -10.484375 C 2.078125 -10.503906 2.179688 -10.46875 2.265625 -10.375 C 2.359375 -10.289062 2.414062 -10.1875 2.4375 -10.0625 C 2.4375 -9.945312 2.394531 -9.84375 2.3125 -9.75 C 2.238281 -9.65625 2.140625 -9.609375 2.015625 -9.609375 C 1.304688 -9.554688 0.789062 -9.65625 0.46875 -9.90625 C 0.144531 -10.164062 -0.078125 -10.4375 -0.203125 -10.71875 C -0.390625 -11.1875 -0.421875 -11.75 -0.296875 -12.40625 C -0.171875 -13.070312 0.0507812 -13.78125 0.375 -14.53125 C 0.707031 -15.28125 1.109375 -16.019531 1.578125 -16.75 C 2.046875 -17.476562 2.53125 -18.144531 3.03125 -18.75 C 3.53125 -19.363281 3.988281 -19.859375 4.40625 -20.234375 C 5.332031 -21.035156 6.0625 -21.273438 6.59375 -20.953125 C 7.226562 -20.578125 7.351562 -19.519531 6.96875 -17.78125 L 6.875 -17.28125 C 6.34375 -14.8125 5.859375 -12.523438 5.421875 -10.421875 C 4.992188 -8.328125 4.59375 -6.40625 4.21875 -4.65625 C 5.78125 -5.144531 7.347656 -5.628906 8.921875 -6.109375 C 10.503906 -6.585938 12 -7.039062 13.40625 -7.46875 C 13.488281 -7.488281 13.570312 -7.515625 13.65625 -7.546875 C 13.738281 -7.578125 13.828125 -7.597656 13.921875 -7.609375 C 14.210938 -9.191406 14.507812 -10.757812 14.8125 -12.3125 C 15.113281 -13.863281 15.40625 -15.332031 15.6875 -16.71875 C 15.96875 -18.113281 16.226562 -19.351562 16.46875 -20.4375 C 16.707031 -21.519531 16.898438 -22.378906 17.046875 -23.015625 C 17.078125 -23.140625 17.144531 -23.234375 17.25 -23.296875 C 17.363281 -23.359375 17.476562 -23.375 17.59375 -23.34375 C 17.71875 -23.3125 17.804688 -23.238281 17.859375 -23.125 C 17.921875 -23.019531 17.9375 -22.914062 17.90625 -22.8125 C 17.757812 -22.1875 17.570312 -21.351562 17.34375 -20.3125 C 17.125 -19.269531 16.878906 -18.078125 16.609375 -16.734375 C 16.335938 -15.398438 16.050781 -13.976562 15.75 -12.46875 C 15.457031 -10.957031 15.164062 -9.4375 14.875 -7.90625 C 15.957031 -8.238281 16.953125 -8.539062 17.859375 -8.8125 C 18.765625 -9.082031 19.539062 -9.320312 20.1875 -9.53125 C 20.289062 -9.5625 20.398438 -9.550781 20.515625 -9.5 C 20.640625 -9.445312 20.71875 -9.367188 20.75 -9.265625 Z M 20.75 -9.265625 "/></g></g><g style="fill:#ca0013;fill-opacity:1;"><g transform="translate(66.326498, 46.220729)"><path style="stroke:none" d="M 7.84375 -5.171875 C 7.945312 -5.109375 8.003906 -5.015625 8.015625 -4.890625 C 8.035156 -4.765625 8.015625 -4.660156 7.953125 -4.578125 C 7.046875 -3.304688 6.210938 -2.253906 5.453125 -1.421875 C 4.691406 -0.597656 3.929688 0.0820312 3.171875 0.625 C 2.609375 1.03125 2.046875 1.234375 1.484375 1.234375 C 1.046875 1.234375 0.664062 1.113281 0.34375 0.875 C 0.125 0.726562 -0.0859375 0.457031 -0.296875 0.0625 C -0.503906 -0.332031 -0.613281 -0.90625 -0.625 -1.65625 C -0.644531 -2.40625 -0.457031 -3.394531 -0.0625 -4.625 C -0.0625 -4.625 -0.0625 -4.628906 -0.0625 -4.640625 C 0.394531 -6.128906 0.9375 -7.265625 1.5625 -8.046875 C 2.1875 -8.828125 2.722656 -9.222656 3.171875 -9.234375 C 3.535156 -9.253906 3.769531 -9.097656 3.875 -8.765625 C 4.039062 -8.316406 3.835938 -7.675781 3.265625 -6.84375 C 2.691406 -6.019531 1.851562 -5.144531 0.75 -4.21875 C 0.40625 -3.132812 0.238281 -2.285156 0.25 -1.671875 C 0.269531 -1.066406 0.359375 -0.628906 0.515625 -0.359375 C 0.671875 -0.0859375 0.789062 0.0820312 0.875 0.15625 C 1.34375 0.5 1.941406 0.410156 2.671875 -0.109375 C 3.378906 -0.609375 4.097656 -1.253906 4.828125 -2.046875 C 5.554688 -2.847656 6.351562 -3.859375 7.21875 -5.078125 C 7.289062 -5.171875 7.390625 -5.226562 7.515625 -5.25 C 7.640625 -5.28125 7.75 -5.253906 7.84375 -5.171875 Z M 3.015625 -8.265625 C 2.847656 -8.148438 2.613281 -7.914062 2.3125 -7.5625 C 2.019531 -7.21875 1.722656 -6.71875 1.421875 -6.0625 C 1.972656 -6.601562 2.363281 -7.0625 2.59375 -7.4375 C 2.832031 -7.8125 2.972656 -8.085938 3.015625 -8.265625 Z M 3.015625 -8.265625 "/></g></g><g style="fill:#ca0013;fill-opacity:1;"><g transform="translate(73.075672, 46.220729)"><path style="stroke:none" d="M 9.71875 -5.15625 C 9.832031 -5.101562 9.90625 -5.019531 9.9375 -4.90625 C 9.976562 -4.789062 9.976562 -4.679688 9.9375 -4.578125 C 9.632812 -3.972656 9.3125 -3.367188 8.96875 -2.765625 C 8.625 -2.160156 8.257812 -1.601562 7.875 -1.09375 C 7.5 -0.59375 7.109375 -0.191406 6.703125 0.109375 C 6.304688 0.410156 5.90625 0.5625 5.5 0.5625 C 5.425781 0.5625 5.34375 0.550781 5.25 0.53125 C 4.207031 0.332031 3.5625 -1.054688 3.3125 -3.640625 C 3.050781 -3.285156 2.742188 -2.882812 2.390625 -2.4375 C 2.046875 -2 1.679688 -1.566406 1.296875 -1.140625 C 1.234375 -1.078125 1.128906 -0.976562 0.984375 -0.84375 C 0.847656 -0.71875 0.6875 -0.613281 0.5 -0.53125 C 0.320312 -0.457031 0.140625 -0.46875 -0.046875 -0.5625 C -0.421875 -0.695312 -0.597656 -1.097656 -0.578125 -1.765625 C -0.578125 -2.148438 -0.503906 -2.628906 -0.359375 -3.203125 C -0.210938 -3.773438 -0.00390625 -4.347656 0.265625 -4.921875 C 0.535156 -5.503906 0.851562 -6.019531 1.21875 -6.46875 C 1.582031 -6.914062 1.988281 -7.21875 2.4375 -7.375 C 2.71875 -7.488281 3.054688 -7.507812 3.453125 -7.4375 C 3.859375 -7.363281 4.273438 -7.070312 4.703125 -6.5625 C 4.785156 -6.46875 4.820312 -6.359375 4.8125 -6.234375 C 4.800781 -6.117188 4.75 -6.019531 4.65625 -5.9375 C 4.570312 -5.863281 4.46875 -5.828125 4.34375 -5.828125 C 4.21875 -5.835938 4.113281 -5.890625 4.03125 -5.984375 C 3.664062 -6.421875 3.347656 -6.625 3.078125 -6.59375 C 2.804688 -6.570312 2.578125 -6.492188 2.390625 -6.359375 C 2.046875 -6.109375 1.734375 -5.75 1.453125 -5.28125 C 1.179688 -4.820312 0.953125 -4.335938 0.765625 -3.828125 C 0.578125 -3.316406 0.441406 -2.835938 0.359375 -2.390625 C 0.285156 -1.953125 0.265625 -1.632812 0.296875 -1.4375 C 0.347656 -1.46875 0.398438 -1.503906 0.453125 -1.546875 C 0.503906 -1.597656 0.5625 -1.660156 0.625 -1.734375 C 1.09375 -2.242188 1.519531 -2.75 1.90625 -3.25 C 2.289062 -3.757812 2.625 -4.207031 2.90625 -4.59375 C 2.976562 -4.695312 3.046875 -4.800781 3.109375 -4.90625 C 3.179688 -5.007812 3.25 -5.097656 3.3125 -5.171875 C 3.4375 -5.328125 3.601562 -5.375 3.8125 -5.3125 C 4.007812 -5.269531 4.113281 -5.140625 4.125 -4.921875 C 4.175781 -3.910156 4.257812 -3.097656 4.375 -2.484375 C 4.488281 -1.878906 4.613281 -1.425781 4.75 -1.125 C 4.894531 -0.820312 5.03125 -0.613281 5.15625 -0.5 C 5.28125 -0.394531 5.367188 -0.34375 5.421875 -0.34375 C 5.722656 -0.28125 6.195312 -0.582031 6.84375 -1.25 C 7.488281 -1.914062 8.25 -3.144531 9.125 -4.9375 C 9.1875 -5.0625 9.273438 -5.144531 9.390625 -5.1875 C 9.503906 -5.226562 9.613281 -5.21875 9.71875 -5.15625 Z M 9.71875 -5.15625 "/></g></g><g style="fill:#ca0013;fill-opacity:1;"><g transform="translate(81.703481, 46.220729)"><path style="stroke:none" d="M 6.828125 -21.734375 C 7.023438 -21.441406 7.023438 -20.847656 6.828125 -19.953125 C 6.640625 -19.054688 6.242188 -17.945312 5.640625 -16.625 C 5.035156 -15.300781 4.226562 -13.835938 3.21875 -12.234375 C 3.207031 -12.210938 3.191406 -12.195312 3.171875 -12.1875 C 2.773438 -10.539062 2.378906 -8.867188 1.984375 -7.171875 C 1.585938 -5.472656 1.210938 -3.800781 0.859375 -2.15625 C 0.503906 -0.519531 0.179688 1.019531 -0.109375 2.46875 C -0.410156 3.914062 -0.664062 5.203125 -0.875 6.328125 C -1.082031 7.460938 -1.234375 8.367188 -1.328125 9.046875 C -1.304688 9.046875 -1.289062 9.046875 -1.28125 9.046875 C -1.15625 9.097656 -1.0625 9.175781 -1 9.28125 C -0.945312 9.382812 -0.945312 9.5 -1 9.625 C -1.101562 9.914062 -1.210938 10.179688 -1.328125 10.421875 C -1.453125 10.671875 -1.613281 10.796875 -1.8125 10.796875 C -1.851562 10.796875 -1.90625 10.785156 -1.96875 10.765625 C -2.113281 10.722656 -2.210938 10.625 -2.265625 10.46875 C -2.328125 10.320312 -2.335938 10.03125 -2.296875 9.59375 C -2.253906 9.15625 -2.15625 8.476562 -2 7.5625 C -1.71875 5.894531 -1.300781 3.710938 -0.75 1.015625 C -0.34375 -0.867188 0.078125 -2.789062 0.515625 -4.75 C 0.960938 -6.707031 1.398438 -8.59375 1.828125 -10.40625 C 2.265625 -12.226562 2.6875 -13.878906 3.09375 -15.359375 C 3.164062 -15.648438 3.28125 -16.054688 3.4375 -16.578125 C 3.59375 -17.109375 3.769531 -17.675781 3.96875 -18.28125 C 4.164062 -18.882812 4.390625 -19.460938 4.640625 -20.015625 C 4.890625 -20.578125 5.144531 -21.039062 5.40625 -21.40625 C 5.664062 -21.769531 5.925781 -21.972656 6.1875 -22.015625 C 6.457031 -22.066406 6.671875 -21.972656 6.828125 -21.734375 Z M 3.984375 -15.296875 C 4.734375 -16.679688 5.257812 -17.835938 5.5625 -18.765625 C 5.863281 -19.691406 6.035156 -20.367188 6.078125 -20.796875 C 5.859375 -20.484375 5.5625 -19.894531 5.1875 -19.03125 C 4.820312 -18.175781 4.421875 -16.929688 3.984375 -15.296875 Z M 3.984375 -15.296875 "/></g></g><g style="fill:#ca0013;fill-opacity:1;"><g transform="translate(85.228821, 46.220729)"><path style="stroke:none" d="M 6.796875 -5.296875 C 6.910156 -5.234375 6.976562 -5.140625 7 -5.015625 C 7.019531 -4.890625 7 -4.769531 6.9375 -4.65625 C 6.644531 -4.195312 6.273438 -3.679688 5.828125 -3.109375 C 5.378906 -2.535156 4.890625 -1.988281 4.359375 -1.46875 C 3.835938 -0.957031 3.316406 -0.53125 2.796875 -0.1875 C 2.273438 0.15625 1.800781 0.328125 1.375 0.328125 C 1.1875 0.328125 1.019531 0.296875 0.875 0.234375 C 0.351562 0.00390625 0.0664062 -0.550781 0.015625 -1.4375 C -0.0351562 -2.332031 0.144531 -3.59375 0.5625 -5.21875 C 0.59375 -5.34375 0.660156 -5.4375 0.765625 -5.5 C 0.867188 -5.5625 0.976562 -5.578125 1.09375 -5.546875 C 1.21875 -5.515625 1.3125 -5.441406 1.375 -5.328125 C 1.4375 -5.222656 1.453125 -5.117188 1.421875 -5.015625 C 1.171875 -4.023438 1.015625 -3.238281 0.953125 -2.65625 C 0.890625 -2.070312 0.875 -1.632812 0.90625 -1.34375 C 0.945312 -1.050781 1.003906 -0.851562 1.078125 -0.75 C 1.160156 -0.65625 1.210938 -0.609375 1.234375 -0.609375 C 1.429688 -0.515625 1.722656 -0.578125 2.109375 -0.796875 C 2.492188 -1.023438 2.925781 -1.359375 3.40625 -1.796875 C 3.882812 -2.234375 4.367188 -2.742188 4.859375 -3.328125 C 5.347656 -3.910156 5.785156 -4.519531 6.171875 -5.15625 C 6.242188 -5.257812 6.335938 -5.320312 6.453125 -5.34375 C 6.578125 -5.375 6.691406 -5.359375 6.796875 -5.296875 Z M 1.328125 -7.140625 C 1.015625 -7.160156 0.851562 -7.25 0.84375 -7.40625 C 0.832031 -7.570312 0.898438 -7.738281 1.046875 -7.90625 C 1.203125 -8.082031 1.359375 -8.203125 1.515625 -8.265625 C 1.753906 -8.335938 1.929688 -8.316406 2.046875 -8.203125 C 2.171875 -8.097656 2.226562 -7.960938 2.21875 -7.796875 C 2.207031 -7.628906 2.128906 -7.472656 1.984375 -7.328125 C 1.835938 -7.191406 1.617188 -7.128906 1.328125 -7.140625 Z M 1.328125 -7.140625 "/></g></g><g style="fill:#ca0013;fill-opacity:1;"><g transform="translate(91.09666, 46.220729)"><path style="stroke:none" d="M 9.34375 -5.171875 C 9.457031 -5.109375 9.53125 -5.019531 9.5625 -4.90625 C 9.59375 -4.789062 9.578125 -4.679688 9.515625 -4.578125 C 8.785156 -3.285156 8.128906 -2.296875 7.546875 -1.609375 C 6.972656 -0.921875 6.382812 -0.617188 5.78125 -0.703125 C 5.007812 -0.785156 4.394531 -1.617188 3.9375 -3.203125 C 3.789062 -3.710938 3.65625 -4.078125 3.53125 -4.296875 C 3.414062 -4.523438 3.320312 -4.664062 3.25 -4.71875 C 3.1875 -4.769531 3.140625 -4.796875 3.109375 -4.796875 C 3.066406 -4.816406 2.972656 -4.769531 2.828125 -4.65625 C 2.691406 -4.550781 2.488281 -4.3125 2.21875 -3.9375 C 1.957031 -3.570312 1.632812 -3 1.25 -2.21875 C 0.863281 -1.4375 0.394531 -0.363281 -0.15625 1 C -0.238281 1.1875 -0.375 1.28125 -0.5625 1.28125 C -0.601562 1.28125 -0.640625 1.269531 -0.671875 1.25 C -0.929688 1.1875 -1.046875 1.023438 -1.015625 0.765625 C -0.941406 0.128906 -0.800781 -0.601562 -0.59375 -1.4375 C -0.394531 -2.269531 -0.175781 -3.117188 0.0625 -3.984375 C 0.300781 -4.859375 0.519531 -5.632812 0.71875 -6.3125 C 0.757812 -6.46875 0.800781 -6.609375 0.84375 -6.734375 C 0.882812 -6.867188 0.921875 -7 0.953125 -7.125 C 0.992188 -7.25 1.066406 -7.335938 1.171875 -7.390625 C 1.285156 -7.441406 1.398438 -7.453125 1.515625 -7.421875 C 1.628906 -7.390625 1.71875 -7.316406 1.78125 -7.203125 C 1.84375 -7.097656 1.851562 -6.988281 1.8125 -6.875 C 1.78125 -6.75 1.742188 -6.617188 1.703125 -6.484375 C 1.660156 -6.347656 1.617188 -6.207031 1.578125 -6.0625 C 1.472656 -5.65625 1.347656 -5.210938 1.203125 -4.734375 C 1.066406 -4.253906 0.925781 -3.765625 0.78125 -3.265625 C 1.3125 -4.253906 1.757812 -4.910156 2.125 -5.234375 C 2.5 -5.566406 2.84375 -5.722656 3.15625 -5.703125 C 3.59375 -5.671875 3.929688 -5.429688 4.171875 -4.984375 C 4.421875 -4.535156 4.628906 -4.019531 4.796875 -3.4375 C 5.035156 -2.632812 5.253906 -2.125 5.453125 -1.90625 C 5.648438 -1.6875 5.796875 -1.578125 5.890625 -1.578125 C 6.085938 -1.546875 6.320312 -1.65625 6.59375 -1.90625 C 6.863281 -2.164062 7.132812 -2.492188 7.40625 -2.890625 C 7.675781 -3.285156 7.929688 -3.675781 8.171875 -4.0625 C 8.410156 -4.445312 8.59375 -4.765625 8.71875 -5.015625 C 8.78125 -5.117188 8.875 -5.1875 9 -5.21875 C 9.125 -5.25 9.238281 -5.234375 9.34375 -5.171875 Z M 9.34375 -5.171875 "/></g></g><g style="fill:#ca0013;fill-opacity:1;"><g transform="translate(99.376576, 46.220729)"><path style="stroke:none" d="M 10.65625 -5.15625 C 10.71875 -5.039062 10.734375 -4.921875 10.703125 -4.796875 C 10.679688 -4.679688 10.617188 -4.59375 10.515625 -4.53125 C 9.617188 -3.9375 8.597656 -3.25 7.453125 -2.46875 C 6.304688 -1.6875 5.132812 -0.785156 3.9375 0.234375 C 3.414062 3.390625 2.851562 6.097656 2.25 8.359375 C 1.644531 10.628906 1.019531 12.503906 0.375 13.984375 C -0.257812 15.460938 -0.882812 16.585938 -1.5 17.359375 C -2.125 18.128906 -2.710938 18.59375 -3.265625 18.75 C -3.441406 18.789062 -3.609375 18.8125 -3.765625 18.8125 C -4.253906 18.8125 -4.675781 18.597656 -5.03125 18.171875 C -5.34375 17.765625 -5.5625 17.207031 -5.6875 16.5 C -5.8125 15.800781 -5.832031 15.019531 -5.75 14.15625 C -5.675781 13.476562 -5.5 12.613281 -5.21875 11.5625 C -4.9375 10.519531 -4.441406 9.359375 -3.734375 8.078125 C -2.796875 6.367188 -1.726562 4.828125 -0.53125 3.453125 C 0.65625 2.078125 1.867188 0.847656 3.109375 -0.234375 C 3.210938 -0.867188 3.316406 -1.53125 3.421875 -2.21875 C 3.523438 -2.914062 3.625 -3.628906 3.71875 -4.359375 C 3.5 -4.035156 3.269531 -3.707031 3.03125 -3.375 C 2.800781 -3.039062 2.570312 -2.71875 2.34375 -2.40625 C 2.113281 -2.113281 1.851562 -1.835938 1.5625 -1.578125 C 1.28125 -1.328125 0.984375 -1.25 0.671875 -1.34375 C 0.535156 -1.375 0.398438 -1.460938 0.265625 -1.609375 C 0.128906 -1.753906 0.046875 -2.003906 0.015625 -2.359375 C -0.00390625 -2.753906 0.0390625 -3.253906 0.15625 -3.859375 C 0.269531 -4.472656 0.445312 -5.101562 0.6875 -5.75 C 0.9375 -6.40625 1.25 -7 1.625 -7.53125 C 2 -8.0625 2.414062 -8.441406 2.875 -8.671875 C 3.15625 -8.816406 3.492188 -8.890625 3.890625 -8.890625 C 4.285156 -8.898438 4.710938 -8.695312 5.171875 -8.28125 C 5.265625 -8.1875 5.316406 -8.082031 5.328125 -7.96875 C 5.335938 -7.851562 5.296875 -7.75 5.203125 -7.65625 C 5.117188 -7.5625 5.015625 -7.507812 4.890625 -7.5 C 4.765625 -7.5 4.660156 -7.535156 4.578125 -7.609375 C 4.015625 -8.117188 3.445312 -8.117188 2.875 -7.609375 C 2.519531 -7.285156 2.207031 -6.859375 1.9375 -6.328125 C 1.664062 -5.804688 1.441406 -5.265625 1.265625 -4.703125 C 1.097656 -4.148438 0.988281 -3.644531 0.9375 -3.1875 C 0.882812 -2.726562 0.890625 -2.414062 0.953125 -2.25 C 0.992188 -2.28125 1.070312 -2.34375 1.1875 -2.4375 C 1.3125 -2.539062 1.457031 -2.710938 1.625 -2.953125 C 1.9375 -3.347656 2.25 -3.773438 2.5625 -4.234375 C 2.882812 -4.703125 3.175781 -5.140625 3.4375 -5.546875 C 3.695312 -5.953125 3.890625 -6.269531 4.015625 -6.5 C 4.140625 -6.695312 4.316406 -6.757812 4.546875 -6.6875 C 4.773438 -6.625 4.875 -6.46875 4.84375 -6.21875 C 4.738281 -5.300781 4.628906 -4.414062 4.515625 -3.5625 C 4.398438 -2.71875 4.28125 -1.898438 4.15625 -1.109375 C 5.238281 -1.992188 6.285156 -2.773438 7.296875 -3.453125 C 8.304688 -4.140625 9.21875 -4.742188 10.03125 -5.265625 C 10.132812 -5.347656 10.242188 -5.375 10.359375 -5.34375 C 10.472656 -5.3125 10.570312 -5.25 10.65625 -5.15625 Z M -3.53125 17.890625 C -3.15625 17.785156 -2.710938 17.421875 -2.203125 16.796875 C -1.691406 16.179688 -1.144531 15.226562 -0.5625 13.9375 C 0.0078125 12.65625 0.59375 10.96875 1.1875 8.875 C 1.789062 6.789062 2.351562 4.234375 2.875 1.203125 C 1.8125 2.179688 0.78125 3.273438 -0.21875 4.484375 C -1.226562 5.703125 -2.140625 7.046875 -2.953125 8.515625 C -3.753906 9.972656 -4.296875 11.320312 -4.578125 12.5625 C -4.867188 13.8125 -4.96875 14.867188 -4.875 15.734375 C -4.789062 16.609375 -4.613281 17.234375 -4.34375 17.609375 C -4.101562 17.890625 -3.832031 17.984375 -3.53125 17.890625 Z M -3.53125 17.890625 "/></g></g><g clip-rule="nonzero" clip-path="url(#c5fe47832c)"><g clip-rule="nonzero" clip-path="url(#99798f088a)"><g clip-rule="nonzero" clip-path="url(#d6ab1e4320)"><path style=" stroke:none;fill-rule:nonzero;fill:#ca0013;fill-opacity:1;" d="M 180.320312 11.679688 C 179.136719 11.488281 178.191406 11.953125 177.4375 12.839844 C 176.722656 13.683594 176.394531 14.691406 176.246094 15.769531 C 176.042969 17.273438 176.238281 18.75 176.609375 20.210938 C 176.625 20.28125 176.644531 20.347656 176.671875 20.453125 C 176.503906 20.359375 176.375 20.28125 176.242188 20.203125 C 175.671875 19.875 175.082031 19.800781 174.480469 20.117188 C 174.148438 20.292969 173.941406 20.570312 173.859375 20.9375 C 173.761719 21.371094 173.835938 21.789062 174.019531 22.1875 C 174.589844 23.433594 175.601562 24.179688 176.882812 24.566406 C 177.46875 24.746094 178.089844 24.808594 178.6875 24.960938 C 179.605469 25.195312 180.503906 25.480469 181.054688 26.355469 C 181.085938 26.410156 181.234375 26.453125 181.28125 26.425781 C 181.339844 26.382812 181.394531 26.261719 181.378906 26.1875 C 181.3125 25.878906 181.144531 25.609375 180.882812 25.441406 C 180.558594 25.234375 180.21875 25.015625 179.851562 24.90625 C 179.105469 24.675781 178.34375 24.488281 177.582031 24.332031 C 176.410156 24.089844 175.523438 23.464844 174.902344 22.457031 C 174.613281 21.984375 174.433594 21.472656 174.546875 20.90625 C 174.65625 20.375 175.058594 20.164062 175.566406 20.351562 C 175.9375 20.492188 176.234375 20.738281 176.492188 21.023438 C 176.832031 21.402344 177.148438 21.796875 177.488281 22.171875 C 177.660156 22.363281 177.851562 22.535156 178.046875 22.695312 C 178.160156 22.785156 178.304688 22.78125 178.417969 22.679688 C 178.535156 22.574219 178.554688 22.4375 178.496094 22.292969 C 178.476562 22.25 178.449219 22.207031 178.429688 22.164062 C 178.136719 21.453125 177.789062 20.761719 177.558594 20.03125 C 176.980469 18.21875 176.855469 16.378906 177.4375 14.535156 C 177.695312 13.71875 178.089844 12.980469 178.792969 12.453125 C 179.371094 12.019531 179.992188 11.941406 180.652344 12.257812 C 181.375 12.601562 181.882812 13.171875 182.289062 13.835938 C 183.054688 15.085938 183.410156 16.472656 183.601562 17.902344 C 183.898438 20.128906 183.757812 22.335938 183.273438 24.527344 C 182.757812 26.871094 181.855469 29.054688 180.507812 31.046875 C 180.25 31.421875 179.972656 31.785156 179.6875 32.175781 C 178.714844 33.421875 177.738281 34.664062 176.796875 35.933594 C 175.363281 37.878906 174.285156 40 173.667969 42.347656 C 173.121094 44.441406 172.871094 46.554688 173.140625 48.714844 C 173.351562 50.386719 173.824219 51.972656 174.679688 53.433594 C 175.011719 54 175.390625 54.53125 175.902344 54.953125 C 176.027344 55.054688 176.175781 55.132812 176.335938 55.234375 C 176.335938 55.171875 176.339844 55.15625 176.332031 55.148438 C 176.289062 55.097656 176.246094 55.046875 176.199219 54.996094 C 174.972656 53.738281 174.15625 52.246094 173.742188 50.542969 C 173.074219 47.78125 173.261719 45.03125 173.96875 42.300781 C 174.507812 40.222656 175.46875 38.332031 176.648438 36.550781 C 177.648438 35.035156 178.796875 33.632812 179.929688 32.214844 C 180.003906 32.117188 180.113281 31.972656 180.246094 31.792969 C 180.664062 31.230469 181.832031 29.667969 182.628906 27.75 C 183.570312 25.488281 184.046875 23.121094 184.210938 20.6875 C 184.316406 19.070312 184.257812 17.464844 183.855469 15.886719 C 183.582031 14.816406 183.164062 13.8125 182.4375 12.960938 C 181.875 12.300781 181.191406 11.820312 180.320312 11.679688 Z M 180.320312 11.679688 "/></g></g></g><g clip-rule="nonzero" clip-path="url(#2c2945e827)"><g mask="url(#9d4302d4a4)" transform="matrix(1,0,0,1,0,-0.000000000000008674)"><g clip-path="url(#6123c1c81b)"><g clip-rule="nonzero" clip-path="url(#98baebccee)"><path style=" stroke:none;fill-rule:nonzero;fill:#ffffff;fill-opacity:1;" d="M 0 0.101562 L 104.695312 0.101562 L 104.695312 57.246094 L 0 57.246094 Z M 0 0.101562 "/></g></g><mask id="9d4302d4a4"><g filter="url(#c48821b70f)"><rect x="0" width="187.5" y="0" height="74.999997" style="fill:#000000;fill-opacity:0.14;stroke:none;"/></g></mask></g></g></g></svg>