<svg xmlns="http://www.w3.org/2000/svg" xmlns:xlink="http://www.w3.org/1999/xlink" width="250" zoomAndPan="magnify" viewBox="0 0 187.5 74.999997" height="100" preserveAspectRatio="xMidYMid meet" version="1.2"><defs><clipPath id="e20f257b38"><path d="M 122.707031 38.617188 L 184.792969 38.617188 L 184.792969 52.078125 L 122.707031 52.078125 Z M 122.707031 38.617188 "/></clipPath><clipPath id="09d1688016"><path d="M 176 25 L 186 25 L 186 44 L 176 44 Z M 176 25 "/></clipPath><clipPath id="1f930a191f"><path d="M 174.542969 40.496094 L 179.457031 24.792969 L 188.738281 27.699219 L 183.820312 43.402344 Z M 174.542969 40.496094 "/></clipPath><clipPath id="01a392fbfd"><path d="M 168.75 58.996094 L 179.476562 24.730469 L 191.613281 28.53125 L 180.882812 62.796875 Z M 168.75 58.996094 "/></clipPath></defs><g id="8e1042b1a4"><g style="fill:#ca0013;fill-opacity:1;"><g transform="translate(3.062599, 41.562458)"><path style="stroke:none" d="M 29.390625 -26.28125 C 29.421875 -26.164062 29.410156 -26.050781 29.359375 -25.9375 C 29.304688 -25.832031 29.226562 -25.757812 29.125 -25.71875 C 28.320312 -25.457031 27.328125 -25.148438 26.140625 -24.796875 C 24.960938 -24.441406 23.671875 -24.050781 22.265625 -23.625 C 20.867188 -23.195312 19.382812 -22.742188 17.8125 -22.265625 C 16.238281 -21.796875 14.675781 -21.316406 13.125 -20.828125 C 12.875 -19.847656 12.59375 -18.671875 12.28125 -17.296875 C 11.96875 -15.929688 11.628906 -14.4375 11.265625 -12.8125 C 10.898438 -11.1875 10.519531 -9.503906 10.125 -7.765625 C 9.75 -6.054688 9.367188 -4.335938 8.984375 -2.609375 C 8.597656 -0.878906 8.222656 0.78125 7.859375 2.375 C 7.492188 3.96875 7.144531 5.457031 6.8125 6.84375 C 6.28125 9.050781 5.847656 10.71875 5.515625 11.84375 C 5.273438 12.695312 5.078125 13.273438 4.921875 13.578125 C 4.765625 13.890625 4.578125 14.046875 4.359375 14.046875 C 4.328125 14.046875 4.296875 14.046875 4.265625 14.046875 C 4.097656 14.015625 3.972656 13.910156 3.890625 13.734375 C 3.804688 13.554688 3.765625 13.222656 3.765625 12.734375 C 3.765625 12.253906 3.8125 11.523438 3.90625 10.546875 C 3.925781 10.421875 3.976562 10.316406 4.0625 10.234375 C 4.15625 10.160156 4.265625 10.132812 4.390625 10.15625 C 4.503906 10.164062 4.597656 10.21875 4.671875 10.3125 C 4.753906 10.40625 4.785156 10.507812 4.765625 10.625 C 4.734375 10.957031 4.710938 11.265625 4.703125 11.546875 C 4.910156 10.796875 5.15625 9.863281 5.4375 8.75 C 5.71875 7.644531 6.015625 6.410156 6.328125 5.046875 C 6.648438 3.691406 6.984375 2.269531 7.328125 0.78125 C 7.671875 -0.695312 8.007812 -2.179688 8.34375 -3.671875 C 8.675781 -5.160156 8.992188 -6.59375 9.296875 -7.96875 C 9.660156 -9.601562 10.007812 -11.191406 10.34375 -12.734375 C 10.6875 -14.273438 11.015625 -15.707031 11.328125 -17.03125 C 11.640625 -18.351562 11.914062 -19.515625 12.15625 -20.515625 C 11.5 -20.316406 10.859375 -20.117188 10.234375 -19.921875 C 9.617188 -19.722656 9.023438 -19.523438 8.453125 -19.328125 C 6.742188 -18.753906 5.375 -18.273438 4.34375 -17.890625 C 3.320312 -17.515625 2.554688 -17.207031 2.046875 -16.96875 C 1.546875 -16.738281 1.195312 -16.554688 1 -16.421875 C 1.15625 -16.316406 1.21875 -16.175781 1.1875 -16 C 1.132812 -15.75 0.988281 -15.625 0.75 -15.625 C 0.71875 -15.625 0.6875 -15.632812 0.65625 -15.65625 C 0.351562 -15.71875 0.148438 -15.8125 0.046875 -15.9375 C -0.046875 -16.0625 -0.0976562 -16.1875 -0.109375 -16.3125 C -0.109375 -16.46875 -0.0507812 -16.617188 0.0625 -16.765625 C 0.175781 -16.921875 0.398438 -17.09375 0.734375 -17.28125 C 1.078125 -17.476562 1.585938 -17.722656 2.265625 -18.015625 C 3.515625 -18.546875 5.316406 -19.207031 7.671875 -20 C 9.117188 -20.476562 10.664062 -20.972656 12.3125 -21.484375 C 13.96875 -22.003906 15.625 -22.515625 17.28125 -23.015625 C 18.945312 -23.523438 20.523438 -24.007812 22.015625 -24.46875 C 23.421875 -24.894531 24.710938 -25.285156 25.890625 -25.640625 C 27.066406 -25.992188 28.054688 -26.300781 28.859375 -26.5625 C 28.960938 -26.59375 29.070312 -26.578125 29.1875 -26.515625 C 29.300781 -26.460938 29.367188 -26.382812 29.390625 -26.28125 Z M 29.390625 -26.28125 "/></g></g><g style="fill:#ca0013;fill-opacity:1;"><g transform="translate(15.371624, 41.562458)"><path style="stroke:none" d="M 10.765625 -5.203125 C 10.859375 -5.140625 10.921875 -5.046875 10.953125 -4.921875 C 10.984375 -4.804688 10.96875 -4.695312 10.90625 -4.59375 C 10.175781 -3.425781 9.53125 -2.476562 8.96875 -1.75 C 8.414062 -1.019531 7.9375 -0.460938 7.53125 -0.078125 C 7.125 0.296875 6.785156 0.550781 6.515625 0.6875 C 6.242188 0.820312 6.023438 0.890625 5.859375 0.890625 C 5.691406 0.890625 5.5625 0.878906 5.46875 0.859375 C 5.125 0.773438 4.867188 0.566406 4.703125 0.234375 C 4.535156 -0.0859375 4.425781 -0.421875 4.375 -0.765625 C 4.320312 -1.117188 4.285156 -1.382812 4.265625 -1.5625 C 4.234375 -2.09375 4.171875 -2.445312 4.078125 -2.625 C 3.992188 -2.8125 3.929688 -2.90625 3.890625 -2.90625 C 3.867188 -2.90625 3.859375 -2.90625 3.859375 -2.90625 C 3.660156 -2.90625 3.332031 -2.628906 2.875 -2.078125 C 2.425781 -1.523438 1.894531 -0.660156 1.28125 0.515625 C 0.664062 1.703125 0.0234375 3.242188 -0.640625 5.140625 C -0.703125 5.335938 -0.835938 5.4375 -1.046875 5.4375 C -1.078125 5.4375 -1.109375 5.4375 -1.140625 5.4375 C -1.378906 5.375 -1.492188 5.21875 -1.484375 4.96875 C -1.460938 4.71875 -1.390625 4.257812 -1.265625 3.59375 C -1.148438 2.925781 -0.988281 2.125 -0.78125 1.1875 C -0.582031 0.257812 -0.359375 -0.742188 -0.109375 -1.828125 C 0.140625 -2.921875 0.394531 -4.03125 0.65625 -5.15625 C 0.925781 -6.28125 1.179688 -7.351562 1.421875 -8.375 C 1.671875 -9.394531 1.894531 -10.3125 2.09375 -11.125 C 2.289062 -11.945312 2.445312 -12.601562 2.5625 -13.09375 C 2.6875 -13.582031 2.75 -13.835938 2.75 -13.859375 C 3.09375 -15.253906 3.476562 -16.519531 3.90625 -17.65625 C 4.332031 -18.800781 4.753906 -19.722656 5.171875 -20.421875 C 5.585938 -21.117188 5.953125 -21.5 6.265625 -21.5625 C 6.523438 -21.601562 6.722656 -21.523438 6.859375 -21.328125 C 7.066406 -21.023438 7.046875 -20.394531 6.796875 -19.4375 C 6.546875 -18.476562 6.09375 -17.257812 5.4375 -15.78125 C 4.78125 -14.3125 3.945312 -12.671875 2.9375 -10.859375 C 2.65625 -9.722656 2.351562 -8.476562 2.03125 -7.125 C 1.707031 -5.78125 1.390625 -4.425781 1.078125 -3.0625 C 0.765625 -1.695312 0.484375 -0.441406 0.234375 0.703125 C 0.640625 -0.160156 1.054688 -0.941406 1.484375 -1.640625 C 1.921875 -2.335938 2.351562 -2.878906 2.78125 -3.265625 C 3.21875 -3.648438 3.625 -3.816406 4 -3.765625 C 4.332031 -3.722656 4.578125 -3.554688 4.734375 -3.265625 C 4.890625 -2.984375 4.992188 -2.675781 5.046875 -2.34375 C 5.109375 -2.019531 5.140625 -1.785156 5.140625 -1.640625 C 5.179688 -1.078125 5.253906 -0.664062 5.359375 -0.40625 C 5.460938 -0.144531 5.566406 -0.0078125 5.671875 0 C 5.703125 0.0078125 5.804688 -0.0078125 5.984375 -0.0625 C 6.160156 -0.113281 6.414062 -0.28125 6.75 -0.5625 C 7.09375 -0.851562 7.546875 -1.347656 8.109375 -2.046875 C 8.671875 -2.753906 9.351562 -3.757812 10.15625 -5.0625 C 10.21875 -5.15625 10.304688 -5.21875 10.421875 -5.25 C 10.546875 -5.28125 10.660156 -5.265625 10.765625 -5.203125 Z M 6.109375 -20.28125 C 5.847656 -19.90625 5.503906 -19.234375 5.078125 -18.265625 C 4.648438 -17.304688 4.210938 -16.003906 3.765625 -14.359375 C 4.546875 -15.890625 5.113281 -17.144531 5.46875 -18.125 C 5.820312 -19.113281 6.035156 -19.832031 6.109375 -20.28125 Z M 6.109375 -20.28125 "/></g></g><g style="fill:#ca0013;fill-opacity:1;"><g transform="translate(25.159802, 41.562458)"><path style="stroke:none" d="M 7.671875 -5.0625 C 7.785156 -5 7.847656 -4.90625 7.859375 -4.78125 C 7.878906 -4.664062 7.859375 -4.5625 7.796875 -4.46875 C 6.898438 -3.226562 6.078125 -2.203125 5.328125 -1.390625 C 4.585938 -0.585938 3.847656 0.078125 3.109375 0.609375 C 2.546875 1.003906 1.992188 1.203125 1.453125 1.203125 C 1.023438 1.203125 0.65625 1.085938 0.34375 0.859375 C 0.125 0.710938 -0.0820312 0.445312 -0.28125 0.0625 C -0.488281 -0.320312 -0.597656 -0.878906 -0.609375 -1.609375 C -0.628906 -2.347656 -0.445312 -3.316406 -0.0625 -4.515625 C -0.0625 -4.515625 -0.0625 -4.523438 -0.0625 -4.546875 C 0.382812 -5.992188 0.914062 -7.097656 1.53125 -7.859375 C 2.144531 -8.628906 2.671875 -9.023438 3.109375 -9.046875 C 3.460938 -9.054688 3.691406 -8.90625 3.796875 -8.59375 C 3.960938 -8.144531 3.765625 -7.515625 3.203125 -6.703125 C 2.640625 -5.898438 1.816406 -5.046875 0.734375 -4.140625 C 0.398438 -3.078125 0.238281 -2.242188 0.25 -1.640625 C 0.257812 -1.046875 0.34375 -0.613281 0.5 -0.34375 C 0.65625 -0.0820312 0.773438 0.0820312 0.859375 0.15625 C 1.316406 0.488281 1.898438 0.398438 2.609375 -0.109375 C 3.304688 -0.597656 4.007812 -1.234375 4.71875 -2.015625 C 5.4375 -2.796875 6.21875 -3.78125 7.0625 -4.96875 C 7.132812 -5.0625 7.234375 -5.117188 7.359375 -5.140625 C 7.484375 -5.171875 7.585938 -5.144531 7.671875 -5.0625 Z M 2.953125 -8.09375 C 2.785156 -7.976562 2.554688 -7.75 2.265625 -7.40625 C 1.984375 -7.070312 1.691406 -6.578125 1.390625 -5.921875 C 1.929688 -6.453125 2.316406 -6.90625 2.546875 -7.28125 C 2.773438 -7.65625 2.910156 -7.925781 2.953125 -8.09375 Z M 2.953125 -8.09375 "/></g></g><g style="fill:#ca0013;fill-opacity:1;"><g transform="translate(31.768528, 41.562458)"><path style="stroke:none" d="M 22.921875 5.5 C 23.015625 5.570312 23.0625 5.664062 23.0625 5.78125 C 23.070312 5.90625 23.039062 6.023438 22.96875 6.140625 C 22.164062 7.117188 21.316406 7.609375 20.421875 7.609375 C 20.390625 7.609375 20.359375 7.609375 20.328125 7.609375 C 19.679688 7.597656 19.046875 7.34375 18.421875 6.84375 C 17.804688 6.34375 17.179688 5.691406 16.546875 4.890625 C 15.921875 4.085938 15.273438 3.207031 14.609375 2.25 C 13.910156 1.28125 13.175781 0.296875 12.40625 -0.703125 C 11.632812 -1.710938 10.816406 -2.597656 9.953125 -3.359375 C 9.023438 -3.128906 8.113281 -3.023438 7.21875 -3.046875 C 6.875 -1.617188 6.53125 -0.191406 6.1875 1.234375 C 5.84375 2.671875 5.523438 4.035156 5.234375 5.328125 C 4.941406 6.617188 4.6875 7.78125 4.46875 8.8125 C 4.257812 9.851562 4.109375 10.703125 4.015625 11.359375 C 4.066406 11.253906 4.125 11.132812 4.1875 11 C 4.226562 10.894531 4.304688 10.816406 4.421875 10.765625 C 4.535156 10.722656 4.644531 10.722656 4.75 10.765625 C 4.875 10.828125 4.953125 10.914062 4.984375 11.03125 C 5.023438 11.144531 5.019531 11.253906 4.96875 11.359375 C 4.6875 11.992188 4.445312 12.46875 4.25 12.78125 C 4.050781 13.09375 3.847656 13.25 3.640625 13.25 C 3.578125 13.25 3.515625 13.234375 3.453125 13.203125 C 3.328125 13.148438 3.226562 13.0625 3.15625 12.9375 C 3.09375 12.8125 3.066406 12.566406 3.078125 12.203125 C 3.085938 11.847656 3.148438 11.316406 3.265625 10.609375 C 3.378906 9.910156 3.5625 8.96875 3.8125 7.78125 C 4.0625 6.601562 4.390625 5.125 4.796875 3.34375 C 5.203125 1.570312 5.71875 -0.578125 6.34375 -3.109375 C 5.507812 -3.203125 4.875 -3.410156 4.4375 -3.734375 C 4.007812 -4.054688 3.742188 -4.394531 3.640625 -4.75 C 3.453125 -5.28125 3.585938 -5.71875 4.046875 -6.0625 C 4.359375 -6.320312 4.773438 -6.453125 5.296875 -6.453125 C 5.828125 -6.453125 6.414062 -6.335938 7.0625 -6.109375 C 7.15625 -6.484375 7.25 -6.863281 7.34375 -7.25 C 7.445312 -7.644531 7.546875 -8.046875 7.640625 -8.453125 C 7.984375 -9.816406 8.3125 -11.132812 8.625 -12.40625 C 8.9375 -13.675781 9.21875 -14.851562 9.46875 -15.9375 C 9.726562 -17.019531 9.941406 -17.945312 10.109375 -18.71875 C 10.140625 -18.84375 10.203125 -18.9375 10.296875 -19 C 10.398438 -19.070312 10.507812 -19.09375 10.625 -19.0625 C 10.75 -19.03125 10.84375 -18.960938 10.90625 -18.859375 C 10.96875 -18.765625 10.988281 -18.65625 10.96875 -18.53125 C 10.789062 -17.757812 10.570312 -16.832031 10.3125 -15.75 C 10.050781 -14.664062 9.765625 -13.484375 9.453125 -12.203125 C 9.148438 -10.929688 8.832031 -9.613281 8.5 -8.25 C 8.394531 -7.851562 8.289062 -7.445312 8.1875 -7.03125 C 8.09375 -6.613281 7.992188 -6.1875 7.890625 -5.75 C 8.265625 -5.5625 8.648438 -5.359375 9.046875 -5.140625 C 9.410156 -4.910156 9.78125 -4.644531 10.15625 -4.34375 C 11.164062 -4.625 12.203125 -5.070312 13.265625 -5.6875 C 14.335938 -6.300781 15.382812 -7.109375 16.40625 -8.109375 C 17.4375 -9.109375 18.382812 -10.34375 19.25 -11.8125 C 19.894531 -12.90625 20.375 -13.972656 20.6875 -15.015625 C 21.007812 -16.054688 21.15625 -17.019531 21.125 -17.90625 C 21.09375 -18.800781 20.890625 -19.554688 20.515625 -20.171875 C 19.648438 -21.535156 18.003906 -22.132812 15.578125 -21.96875 C 14.359375 -21.875 13.109375 -21.617188 11.828125 -21.203125 C 10.546875 -20.785156 9.3125 -20.238281 8.125 -19.5625 C 6.945312 -18.894531 5.890625 -18.144531 4.953125 -17.3125 C 4.023438 -16.488281 3.3125 -15.632812 2.8125 -14.75 C 1.84375 -13.050781 1.742188 -11.4375 2.515625 -9.90625 C 2.566406 -9.800781 2.570312 -9.691406 2.53125 -9.578125 C 2.488281 -9.460938 2.414062 -9.375 2.3125 -9.3125 C 2.207031 -9.269531 2.097656 -9.265625 1.984375 -9.296875 C 1.867188 -9.335938 1.785156 -9.410156 1.734375 -9.515625 C 0.816406 -11.335938 0.921875 -13.222656 2.046875 -15.171875 C 2.585938 -16.140625 3.347656 -17.0625 4.328125 -17.9375 C 5.304688 -18.820312 6.410156 -19.613281 7.640625 -20.3125 C 8.878906 -21.019531 10.175781 -21.59375 11.53125 -22.03125 C 12.882812 -22.476562 14.222656 -22.753906 15.546875 -22.859375 C 16.679688 -22.929688 17.628906 -22.859375 18.390625 -22.640625 C 19.148438 -22.421875 19.757812 -22.125 20.21875 -21.75 C 20.675781 -21.382812 21.015625 -21.007812 21.234375 -20.625 C 21.691406 -19.914062 21.941406 -19.0625 21.984375 -18.0625 C 22.035156 -17.070312 21.894531 -16.003906 21.5625 -14.859375 C 21.226562 -13.722656 20.707031 -12.554688 20 -11.359375 C 19.3125 -10.191406 18.492188 -9.097656 17.546875 -8.078125 C 16.597656 -7.054688 15.585938 -6.179688 14.515625 -5.453125 C 13.367188 -4.648438 12.179688 -4.046875 10.953125 -3.640625 C 11.765625 -2.859375 12.53125 -1.992188 13.25 -1.046875 C 13.96875 -0.109375 14.65625 0.820312 15.3125 1.75 C 15.914062 2.59375 16.503906 3.394531 17.078125 4.15625 C 17.660156 4.914062 18.222656 5.53125 18.765625 6 C 19.304688 6.476562 19.835938 6.726562 20.359375 6.75 C 20.992188 6.757812 21.644531 6.363281 22.3125 5.5625 C 22.382812 5.476562 22.476562 5.425781 22.59375 5.40625 C 22.707031 5.394531 22.816406 5.425781 22.921875 5.5 Z M 4.453125 -5 C 4.523438 -4.789062 4.734375 -4.582031 5.078125 -4.375 C 5.429688 -4.164062 5.921875 -4.023438 6.546875 -3.953125 C 6.648438 -4.359375 6.753906 -4.78125 6.859375 -5.21875 C 6.585938 -5.332031 6.316406 -5.421875 6.046875 -5.484375 C 5.785156 -5.554688 5.539062 -5.59375 5.3125 -5.59375 C 5 -5.59375 4.75 -5.523438 4.5625 -5.390625 C 4.445312 -5.273438 4.410156 -5.144531 4.453125 -5 Z M 7.421875 -3.9375 C 7.953125 -3.9375 8.492188 -3.988281 9.046875 -4.09375 C 8.890625 -4.195312 8.738281 -4.296875 8.59375 -4.390625 C 8.457031 -4.460938 8.3125 -4.539062 8.15625 -4.625 C 8 -4.707031 7.832031 -4.796875 7.65625 -4.890625 C 7.625 -4.722656 7.585938 -4.554688 7.546875 -4.390625 C 7.515625 -4.234375 7.472656 -4.082031 7.421875 -3.9375 Z M 7.421875 -3.9375 "/></g></g><g style="fill:#ca0013;fill-opacity:1;"><g transform="translate(52.68479, 41.562458)"><path style="stroke:none" d="M 7.671875 -5.0625 C 7.785156 -5 7.847656 -4.90625 7.859375 -4.78125 C 7.878906 -4.664062 7.859375 -4.5625 7.796875 -4.46875 C 6.898438 -3.226562 6.078125 -2.203125 5.328125 -1.390625 C 4.585938 -0.585938 3.847656 0.078125 3.109375 0.609375 C 2.546875 1.003906 1.992188 1.203125 1.453125 1.203125 C 1.023438 1.203125 0.65625 1.085938 0.34375 0.859375 C 0.125 0.710938 -0.0820312 0.445312 -0.28125 0.0625 C -0.488281 -0.320312 -0.597656 -0.878906 -0.609375 -1.609375 C -0.628906 -2.347656 -0.445312 -3.316406 -0.0625 -4.515625 C -0.0625 -4.515625 -0.0625 -4.523438 -0.0625 -4.546875 C 0.382812 -5.992188 0.914062 -7.097656 1.53125 -7.859375 C 2.144531 -8.628906 2.671875 -9.023438 3.109375 -9.046875 C 3.460938 -9.054688 3.691406 -8.90625 3.796875 -8.59375 C 3.960938 -8.144531 3.765625 -7.515625 3.203125 -6.703125 C 2.640625 -5.898438 1.816406 -5.046875 0.734375 -4.140625 C 0.398438 -3.078125 0.238281 -2.242188 0.25 -1.640625 C 0.257812 -1.046875 0.34375 -0.613281 0.5 -0.34375 C 0.65625 -0.0820312 0.773438 0.0820312 0.859375 0.15625 C 1.316406 0.488281 1.898438 0.398438 2.609375 -0.109375 C 3.304688 -0.597656 4.007812 -1.234375 4.71875 -2.015625 C 5.4375 -2.796875 6.21875 -3.78125 7.0625 -4.96875 C 7.132812 -5.0625 7.234375 -5.117188 7.359375 -5.140625 C 7.484375 -5.171875 7.585938 -5.144531 7.671875 -5.0625 Z M 2.953125 -8.09375 C 2.785156 -7.976562 2.554688 -7.75 2.265625 -7.40625 C 1.984375 -7.070312 1.691406 -6.578125 1.390625 -5.921875 C 1.929688 -6.453125 2.316406 -6.90625 2.546875 -7.28125 C 2.773438 -7.65625 2.910156 -7.925781 2.953125 -8.09375 Z M 2.953125 -8.09375 "/></g></g><g style="fill:#ca0013;fill-opacity:1;"><g transform="translate(59.293516, 41.562458)"><path style="stroke:none" d="M 9.703125 -18.96875 C 9.742188 -18.9375 9.785156 -18.863281 9.828125 -18.75 C 9.878906 -18.632812 9.90625 -18.4375 9.90625 -18.15625 C 9.90625 -17.882812 9.84375 -17.476562 9.71875 -16.9375 C 9.601562 -16.394531 9.398438 -15.679688 9.109375 -14.796875 C 9.066406 -14.671875 9.023438 -14.539062 8.984375 -14.40625 C 8.941406 -14.28125 8.898438 -14.160156 8.859375 -14.046875 C 8.515625 -12.953125 8.09375 -11.726562 7.59375 -10.375 C 7.09375 -9.019531 6.414062 -7.535156 5.5625 -5.921875 C 5.363281 -4.941406 5.160156 -3.894531 4.953125 -2.78125 C 4.742188 -1.664062 4.53125 -0.488281 4.3125 0.75 C 4.039062 2.425781 3.828125 3.8125 3.671875 4.90625 C 3.515625 6 3.40625 6.863281 3.34375 7.5 C 3.28125 8.144531 3.238281 8.632812 3.21875 8.96875 C 3.34375 8.925781 3.46875 8.925781 3.59375 8.96875 C 3.695312 9.03125 3.765625 9.117188 3.796875 9.234375 C 3.835938 9.347656 3.835938 9.457031 3.796875 9.5625 C 3.722656 9.726562 3.613281 9.910156 3.46875 10.109375 C 3.332031 10.316406 3.164062 10.421875 2.96875 10.421875 C 2.914062 10.421875 2.859375 10.414062 2.796875 10.40625 C 2.640625 10.363281 2.523438 10.253906 2.453125 10.078125 C 2.378906 9.898438 2.34375 9.566406 2.34375 9.078125 C 2.351562 8.585938 2.421875 7.84375 2.546875 6.84375 C 2.722656 5.257812 3.023438 3.179688 3.453125 0.609375 C 3.691406 -0.796875 3.941406 -2.164062 4.203125 -3.5 C 3.972656 -3.132812 3.734375 -2.757812 3.484375 -2.375 C 3.234375 -2 2.972656 -1.617188 2.703125 -1.234375 C 2.296875 -0.617188 1.925781 -0.1875 1.59375 0.0625 C 1.257812 0.3125 0.96875 0.441406 0.71875 0.453125 C 0.46875 0.472656 0.257812 0.4375 0.09375 0.34375 C -0.238281 0.144531 -0.453125 -0.203125 -0.546875 -0.703125 C -0.640625 -1.203125 -0.628906 -1.765625 -0.515625 -2.390625 C -0.398438 -3.023438 -0.210938 -3.628906 0.046875 -4.203125 C 0.578125 -5.328125 1.1875 -6.117188 1.875 -6.578125 C 2.5625 -7.035156 3.148438 -7.195312 3.640625 -7.0625 C 3.742188 -7.019531 3.90625 -6.914062 4.125 -6.75 C 4.351562 -6.59375 4.492188 -6.296875 4.546875 -5.859375 C 4.617188 -5.984375 4.6875 -6.101562 4.75 -6.21875 C 5.3125 -8.820312 5.863281 -11.066406 6.40625 -12.953125 C 6.945312 -14.847656 7.457031 -16.320312 7.9375 -17.375 C 8.414062 -18.425781 8.820312 -19.003906 9.15625 -19.109375 C 9.363281 -19.179688 9.546875 -19.132812 9.703125 -18.96875 Z M 2 -1.734375 C 2.363281 -2.253906 2.707031 -2.769531 3.03125 -3.28125 C 3.351562 -3.800781 3.660156 -4.3125 3.953125 -4.8125 C 3.722656 -4.894531 3.632812 -5.046875 3.6875 -5.265625 C 3.6875 -5.378906 3.679688 -5.550781 3.671875 -5.78125 C 3.660156 -6.019531 3.566406 -6.164062 3.390625 -6.21875 C 3.359375 -6.238281 3.3125 -6.25 3.25 -6.25 C 2.957031 -6.25 2.582031 -6.050781 2.125 -5.65625 C 1.664062 -5.257812 1.238281 -4.644531 0.84375 -3.8125 C 0.582031 -3.269531 0.414062 -2.75 0.34375 -2.25 C 0.269531 -1.757812 0.253906 -1.347656 0.296875 -1.015625 C 0.335938 -0.679688 0.421875 -0.488281 0.546875 -0.4375 C 0.585938 -0.40625 0.726562 -0.457031 0.96875 -0.59375 C 1.21875 -0.726562 1.5625 -1.109375 2 -1.734375 Z M 8.265625 -15.0625 C 8.453125 -15.59375 8.59375 -16.050781 8.6875 -16.4375 C 8.789062 -16.820312 8.867188 -17.148438 8.921875 -17.421875 C 8.640625 -16.835938 8.289062 -15.945312 7.875 -14.75 C 7.46875 -13.550781 7.023438 -12.007812 6.546875 -10.125 C 6.859375 -10.90625 7.128906 -11.640625 7.359375 -12.328125 C 7.597656 -13.023438 7.816406 -13.679688 8.015625 -14.296875 C 8.066406 -14.429688 8.109375 -14.5625 8.140625 -14.6875 C 8.179688 -14.8125 8.222656 -14.9375 8.265625 -15.0625 Z M 8.265625 -15.0625 "/></g></g><g style="fill:#ca0013;fill-opacity:1;"><g transform="translate(66.401865, 41.562458)"><path style="stroke:none" d=""/></g></g><g style="fill:#ca0013;fill-opacity:1;"><g transform="translate(73.373952, 41.562458)"><path style="stroke:none" d="M 29.390625 -26.28125 C 29.421875 -26.164062 29.410156 -26.050781 29.359375 -25.9375 C 29.304688 -25.832031 29.226562 -25.757812 29.125 -25.71875 C 28.320312 -25.457031 27.328125 -25.148438 26.140625 -24.796875 C 24.960938 -24.441406 23.671875 -24.050781 22.265625 -23.625 C 20.867188 -23.195312 19.382812 -22.742188 17.8125 -22.265625 C 16.238281 -21.796875 14.675781 -21.316406 13.125 -20.828125 C 12.875 -19.847656 12.59375 -18.671875 12.28125 -17.296875 C 11.96875 -15.929688 11.628906 -14.4375 11.265625 -12.8125 C 10.898438 -11.1875 10.519531 -9.503906 10.125 -7.765625 C 9.75 -6.054688 9.367188 -4.335938 8.984375 -2.609375 C 8.597656 -0.878906 8.222656 0.78125 7.859375 2.375 C 7.492188 3.96875 7.144531 5.457031 6.8125 6.84375 C 6.28125 9.050781 5.847656 10.71875 5.515625 11.84375 C 5.273438 12.695312 5.078125 13.273438 4.921875 13.578125 C 4.765625 13.890625 4.578125 14.046875 4.359375 14.046875 C 4.328125 14.046875 4.296875 14.046875 4.265625 14.046875 C 4.097656 14.015625 3.972656 13.910156 3.890625 13.734375 C 3.804688 13.554688 3.765625 13.222656 3.765625 12.734375 C 3.765625 12.253906 3.8125 11.523438 3.90625 10.546875 C 3.925781 10.421875 3.976562 10.316406 4.0625 10.234375 C 4.15625 10.160156 4.265625 10.132812 4.390625 10.15625 C 4.503906 10.164062 4.597656 10.21875 4.671875 10.3125 C 4.753906 10.40625 4.785156 10.507812 4.765625 10.625 C 4.734375 10.957031 4.710938 11.265625 4.703125 11.546875 C 4.910156 10.796875 5.15625 9.863281 5.4375 8.75 C 5.71875 7.644531 6.015625 6.410156 6.328125 5.046875 C 6.648438 3.691406 6.984375 2.269531 7.328125 0.78125 C 7.671875 -0.695312 8.007812 -2.179688 8.34375 -3.671875 C 8.675781 -5.160156 8.992188 -6.59375 9.296875 -7.96875 C 9.660156 -9.601562 10.007812 -11.191406 10.34375 -12.734375 C 10.6875 -14.273438 11.015625 -15.707031 11.328125 -17.03125 C 11.640625 -18.351562 11.914062 -19.515625 12.15625 -20.515625 C 11.5 -20.316406 10.859375 -20.117188 10.234375 -19.921875 C 9.617188 -19.722656 9.023438 -19.523438 8.453125 -19.328125 C 6.742188 -18.753906 5.375 -18.273438 4.34375 -17.890625 C 3.320312 -17.515625 2.554688 -17.207031 2.046875 -16.96875 C 1.546875 -16.738281 1.195312 -16.554688 1 -16.421875 C 1.15625 -16.316406 1.21875 -16.175781 1.1875 -16 C 1.132812 -15.75 0.988281 -15.625 0.75 -15.625 C 0.71875 -15.625 0.6875 -15.632812 0.65625 -15.65625 C 0.351562 -15.71875 0.148438 -15.8125 0.046875 -15.9375 C -0.046875 -16.0625 -0.0976562 -16.1875 -0.109375 -16.3125 C -0.109375 -16.46875 -0.0507812 -16.617188 0.0625 -16.765625 C 0.175781 -16.921875 0.398438 -17.09375 0.734375 -17.28125 C 1.078125 -17.476562 1.585938 -17.722656 2.265625 -18.015625 C 3.515625 -18.546875 5.316406 -19.207031 7.671875 -20 C 9.117188 -20.476562 10.664062 -20.972656 12.3125 -21.484375 C 13.96875 -22.003906 15.625 -22.515625 17.28125 -23.015625 C 18.945312 -23.523438 20.523438 -24.007812 22.015625 -24.46875 C 23.421875 -24.894531 24.710938 -25.285156 25.890625 -25.640625 C 27.066406 -25.992188 28.054688 -26.300781 28.859375 -26.5625 C 28.960938 -26.59375 29.070312 -26.578125 29.1875 -26.515625 C 29.300781 -26.460938 29.367188 -26.382812 29.390625 -26.28125 Z M 29.390625 -26.28125 "/></g></g><g style="fill:#ca0013;fill-opacity:1;"><g transform="translate(85.682977, 41.562458)"><path style="stroke:none" d="M 10.765625 -5.203125 C 10.859375 -5.140625 10.921875 -5.046875 10.953125 -4.921875 C 10.984375 -4.804688 10.96875 -4.695312 10.90625 -4.59375 C 10.175781 -3.425781 9.53125 -2.476562 8.96875 -1.75 C 8.414062 -1.019531 7.9375 -0.460938 7.53125 -0.078125 C 7.125 0.296875 6.785156 0.550781 6.515625 0.6875 C 6.242188 0.820312 6.023438 0.890625 5.859375 0.890625 C 5.691406 0.890625 5.5625 0.878906 5.46875 0.859375 C 5.125 0.773438 4.867188 0.566406 4.703125 0.234375 C 4.535156 -0.0859375 4.425781 -0.421875 4.375 -0.765625 C 4.320312 -1.117188 4.285156 -1.382812 4.265625 -1.5625 C 4.234375 -2.09375 4.171875 -2.445312 4.078125 -2.625 C 3.992188 -2.8125 3.929688 -2.90625 3.890625 -2.90625 C 3.867188 -2.90625 3.859375 -2.90625 3.859375 -2.90625 C 3.660156 -2.90625 3.332031 -2.628906 2.875 -2.078125 C 2.425781 -1.523438 1.894531 -0.660156 1.28125 0.515625 C 0.664062 1.703125 0.0234375 3.242188 -0.640625 5.140625 C -0.703125 5.335938 -0.835938 5.4375 -1.046875 5.4375 C -1.078125 5.4375 -1.109375 5.4375 -1.140625 5.4375 C -1.378906 5.375 -1.492188 5.21875 -1.484375 4.96875 C -1.460938 4.71875 -1.390625 4.257812 -1.265625 3.59375 C -1.148438 2.925781 -0.988281 2.125 -0.78125 1.1875 C -0.582031 0.257812 -0.359375 -0.742188 -0.109375 -1.828125 C 0.140625 -2.921875 0.394531 -4.03125 0.65625 -5.15625 C 0.925781 -6.28125 1.179688 -7.351562 1.421875 -8.375 C 1.671875 -9.394531 1.894531 -10.3125 2.09375 -11.125 C 2.289062 -11.945312 2.445312 -12.601562 2.5625 -13.09375 C 2.6875 -13.582031 2.75 -13.835938 2.75 -13.859375 C 3.09375 -15.253906 3.476562 -16.519531 3.90625 -17.65625 C 4.332031 -18.800781 4.753906 -19.722656 5.171875 -20.421875 C 5.585938 -21.117188 5.953125 -21.5 6.265625 -21.5625 C 6.523438 -21.601562 6.722656 -21.523438 6.859375 -21.328125 C 7.066406 -21.023438 7.046875 -20.394531 6.796875 -19.4375 C 6.546875 -18.476562 6.09375 -17.257812 5.4375 -15.78125 C 4.78125 -14.3125 3.945312 -12.671875 2.9375 -10.859375 C 2.65625 -9.722656 2.351562 -8.476562 2.03125 -7.125 C 1.707031 -5.78125 1.390625 -4.425781 1.078125 -3.0625 C 0.765625 -1.695312 0.484375 -0.441406 0.234375 0.703125 C 0.640625 -0.160156 1.054688 -0.941406 1.484375 -1.640625 C 1.921875 -2.335938 2.351562 -2.878906 2.78125 -3.265625 C 3.21875 -3.648438 3.625 -3.816406 4 -3.765625 C 4.332031 -3.722656 4.578125 -3.554688 4.734375 -3.265625 C 4.890625 -2.984375 4.992188 -2.675781 5.046875 -2.34375 C 5.109375 -2.019531 5.140625 -1.785156 5.140625 -1.640625 C 5.179688 -1.078125 5.253906 -0.664062 5.359375 -0.40625 C 5.460938 -0.144531 5.566406 -0.0078125 5.671875 0 C 5.703125 0.0078125 5.804688 -0.0078125 5.984375 -0.0625 C 6.160156 -0.113281 6.414062 -0.28125 6.75 -0.5625 C 7.09375 -0.851562 7.546875 -1.347656 8.109375 -2.046875 C 8.671875 -2.753906 9.351562 -3.757812 10.15625 -5.0625 C 10.21875 -5.15625 10.304688 -5.21875 10.421875 -5.25 C 10.546875 -5.28125 10.660156 -5.265625 10.765625 -5.203125 Z M 6.109375 -20.28125 C 5.847656 -19.90625 5.503906 -19.234375 5.078125 -18.265625 C 4.648438 -17.304688 4.210938 -16.003906 3.765625 -14.359375 C 4.546875 -15.890625 5.113281 -17.144531 5.46875 -18.125 C 5.820312 -19.113281 6.035156 -19.832031 6.109375 -20.28125 Z M 6.109375 -20.28125 "/></g></g><g style="fill:#ca0013;fill-opacity:1;"><g transform="translate(95.471155, 41.562458)"><path style="stroke:none" d="M 9.96875 -5.15625 C 10.070312 -5.09375 10.144531 -5.003906 10.1875 -4.890625 C 10.238281 -4.773438 10.234375 -4.664062 10.171875 -4.5625 C 9.890625 -3.945312 9.539062 -3.25 9.125 -2.46875 C 8.707031 -1.695312 8.265625 -0.921875 7.796875 -0.140625 C 7.328125 0.628906 6.847656 1.335938 6.359375 1.984375 C 5.878906 2.628906 5.410156 3.148438 4.953125 3.546875 C 4.492188 3.953125 4.082031 4.15625 3.71875 4.15625 C 3.613281 4.15625 3.519531 4.132812 3.4375 4.09375 C 3.113281 3.96875 2.898438 3.675781 2.796875 3.21875 C 2.703125 2.769531 2.71875 2.117188 2.84375 1.265625 C 3.050781 -0.253906 3.609375 -2.414062 4.515625 -5.21875 C 4.503906 -5.21875 4.492188 -5.210938 4.484375 -5.203125 C 4.472656 -5.203125 4.460938 -5.203125 4.453125 -5.203125 C 4.148438 -4.992188 3.785156 -4.773438 3.359375 -4.546875 C 2.929688 -4.316406 2.488281 -4.160156 2.03125 -4.078125 C 1.582031 -4.003906 1.15625 -4.109375 0.75 -4.390625 C 0.175781 -4.796875 -0.113281 -5.359375 -0.125 -6.078125 C -0.144531 -6.804688 0.125 -7.601562 0.6875 -8.46875 C 0.863281 -8.75 1.097656 -9.050781 1.390625 -9.375 C 1.691406 -9.707031 2.003906 -9.960938 2.328125 -10.140625 C 2.648438 -10.328125 2.941406 -10.335938 3.203125 -10.171875 C 3.335938 -10.097656 3.4375 -9.96875 3.5 -9.78125 C 3.570312 -9.601562 3.570312 -9.328125 3.5 -8.953125 C 3.425781 -8.578125 3.242188 -8.066406 2.953125 -7.421875 C 2.660156 -6.785156 2.226562 -5.960938 1.65625 -4.953125 C 2.007812 -4.910156 2.398438 -5.007812 2.828125 -5.25 C 3.253906 -5.488281 3.632812 -5.710938 3.96875 -5.921875 C 4.289062 -6.140625 4.554688 -6.296875 4.765625 -6.390625 C 4.984375 -6.492188 5.179688 -6.476562 5.359375 -6.34375 C 5.523438 -6.207031 5.59375 -6.039062 5.5625 -5.84375 C 5.53125 -5.644531 5.5 -5.492188 5.46875 -5.390625 C 4.96875 -3.804688 4.582031 -2.492188 4.3125 -1.453125 C 4.039062 -0.410156 3.851562 0.425781 3.75 1.0625 C 3.65625 1.695312 3.609375 2.171875 3.609375 2.484375 C 3.609375 2.804688 3.628906 3.015625 3.671875 3.109375 C 3.722656 3.210938 3.75 3.273438 3.75 3.296875 C 3.925781 3.328125 4.296875 3.035156 4.859375 2.421875 C 5.429688 1.804688 6.113281 0.882812 6.90625 -0.34375 C 7.695312 -1.582031 8.519531 -3.113281 9.375 -4.9375 C 9.4375 -5.050781 9.523438 -5.125 9.640625 -5.15625 C 9.753906 -5.195312 9.863281 -5.195312 9.96875 -5.15625 Z M 0.8125 -6.703125 C 0.726562 -6.378906 0.703125 -6.113281 0.734375 -5.90625 C 0.773438 -5.707031 0.832031 -5.550781 0.90625 -5.4375 C 1.394531 -6.28125 1.765625 -6.96875 2.015625 -7.5 C 2.265625 -8.03125 2.429688 -8.4375 2.515625 -8.71875 C 2.609375 -9.007812 2.664062 -9.21875 2.6875 -9.34375 C 2.519531 -9.25 2.3125 -9.070312 2.0625 -8.8125 C 1.8125 -8.550781 1.566406 -8.238281 1.328125 -7.875 C 1.097656 -7.519531 0.925781 -7.128906 0.8125 -6.703125 Z M 0.8125 -6.703125 "/></g></g><g style="fill:#ca0013;fill-opacity:1;"><g transform="translate(104.532601, 41.562458)"><path style="stroke:none" d="M 7.671875 -5.0625 C 7.785156 -5 7.847656 -4.90625 7.859375 -4.78125 C 7.878906 -4.664062 7.859375 -4.5625 7.796875 -4.46875 C 6.898438 -3.226562 6.078125 -2.203125 5.328125 -1.390625 C 4.585938 -0.585938 3.847656 0.078125 3.109375 0.609375 C 2.546875 1.003906 1.992188 1.203125 1.453125 1.203125 C 1.023438 1.203125 0.65625 1.085938 0.34375 0.859375 C 0.125 0.710938 -0.0820312 0.445312 -0.28125 0.0625 C -0.488281 -0.320312 -0.597656 -0.878906 -0.609375 -1.609375 C -0.628906 -2.347656 -0.445312 -3.316406 -0.0625 -4.515625 C -0.0625 -4.515625 -0.0625 -4.523438 -0.0625 -4.546875 C 0.382812 -5.992188 0.914062 -7.097656 1.53125 -7.859375 C 2.144531 -8.628906 2.671875 -9.023438 3.109375 -9.046875 C 3.460938 -9.054688 3.691406 -8.90625 3.796875 -8.59375 C 3.960938 -8.144531 3.765625 -7.515625 3.203125 -6.703125 C 2.640625 -5.898438 1.816406 -5.046875 0.734375 -4.140625 C 0.398438 -3.078125 0.238281 -2.242188 0.25 -1.640625 C 0.257812 -1.046875 0.34375 -0.613281 0.5 -0.34375 C 0.65625 -0.0820312 0.773438 0.0820312 0.859375 0.15625 C 1.316406 0.488281 1.898438 0.398438 2.609375 -0.109375 C 3.304688 -0.597656 4.007812 -1.234375 4.71875 -2.015625 C 5.4375 -2.796875 6.21875 -3.78125 7.0625 -4.96875 C 7.132812 -5.0625 7.234375 -5.117188 7.359375 -5.140625 C 7.484375 -5.171875 7.585938 -5.144531 7.671875 -5.0625 Z M 2.953125 -8.09375 C 2.785156 -7.976562 2.554688 -7.75 2.265625 -7.40625 C 1.984375 -7.070312 1.691406 -6.578125 1.390625 -5.921875 C 1.929688 -6.453125 2.316406 -6.90625 2.546875 -7.28125 C 2.773438 -7.65625 2.910156 -7.925781 2.953125 -8.09375 Z M 2.953125 -8.09375 "/></g></g><g style="fill:#ca0013;fill-opacity:1;"><g transform="translate(111.141327, 41.562458)"><path style="stroke:none" d="M 9.515625 -5.046875 C 9.617188 -4.992188 9.691406 -4.910156 9.734375 -4.796875 C 9.773438 -4.691406 9.769531 -4.582031 9.71875 -4.46875 C 9.4375 -3.882812 9.125 -3.296875 8.78125 -2.703125 C 8.4375 -2.109375 8.078125 -1.566406 7.703125 -1.078125 C 7.335938 -0.585938 6.957031 -0.195312 6.5625 0.09375 C 6.164062 0.394531 5.773438 0.546875 5.390625 0.546875 C 5.304688 0.546875 5.222656 0.535156 5.140625 0.515625 C 4.117188 0.328125 3.488281 -1.03125 3.25 -3.5625 C 2.988281 -3.21875 2.6875 -2.828125 2.34375 -2.390625 C 2.007812 -1.960938 1.648438 -1.535156 1.265625 -1.109375 C 1.210938 -1.046875 1.113281 -0.953125 0.96875 -0.828125 C 0.832031 -0.703125 0.675781 -0.597656 0.5 -0.515625 C 0.320312 -0.441406 0.140625 -0.453125 -0.046875 -0.546875 C -0.410156 -0.679688 -0.582031 -1.078125 -0.5625 -1.734375 C -0.5625 -2.109375 -0.488281 -2.570312 -0.34375 -3.125 C -0.207031 -3.6875 -0.0078125 -4.25 0.25 -4.8125 C 0.519531 -5.382812 0.832031 -5.890625 1.1875 -6.328125 C 1.550781 -6.773438 1.953125 -7.070312 2.390625 -7.21875 C 2.660156 -7.332031 2.988281 -7.351562 3.375 -7.28125 C 3.769531 -7.207031 4.179688 -6.921875 4.609375 -6.421875 C 4.679688 -6.335938 4.710938 -6.234375 4.703125 -6.109375 C 4.703125 -5.984375 4.65625 -5.882812 4.5625 -5.8125 C 4.476562 -5.738281 4.375 -5.703125 4.25 -5.703125 C 4.125 -5.710938 4.023438 -5.765625 3.953125 -5.859375 C 3.585938 -6.285156 3.269531 -6.484375 3 -6.453125 C 2.738281 -6.429688 2.519531 -6.351562 2.34375 -6.21875 C 2.007812 -5.976562 1.703125 -5.628906 1.421875 -5.171875 C 1.148438 -4.722656 0.925781 -4.25 0.75 -3.75 C 0.570312 -3.25 0.441406 -2.78125 0.359375 -2.34375 C 0.285156 -1.914062 0.265625 -1.601562 0.296875 -1.40625 C 0.335938 -1.4375 0.382812 -1.472656 0.4375 -1.515625 C 0.488281 -1.566406 0.546875 -1.628906 0.609375 -1.703125 C 1.066406 -2.203125 1.484375 -2.695312 1.859375 -3.1875 C 2.242188 -3.6875 2.570312 -4.125 2.84375 -4.5 C 2.914062 -4.601562 2.984375 -4.703125 3.046875 -4.796875 C 3.117188 -4.898438 3.1875 -4.988281 3.25 -5.0625 C 3.375 -5.21875 3.53125 -5.265625 3.71875 -5.203125 C 3.914062 -5.160156 4.023438 -5.03125 4.046875 -4.8125 C 4.085938 -3.832031 4.164062 -3.039062 4.28125 -2.4375 C 4.394531 -1.84375 4.519531 -1.394531 4.65625 -1.09375 C 4.789062 -0.800781 4.914062 -0.601562 5.03125 -0.5 C 5.15625 -0.394531 5.25 -0.34375 5.3125 -0.34375 C 5.601562 -0.28125 6.066406 -0.570312 6.703125 -1.21875 C 7.335938 -1.875 8.078125 -3.082031 8.921875 -4.84375 C 8.984375 -4.957031 9.070312 -5.035156 9.1875 -5.078125 C 9.300781 -5.117188 9.410156 -5.109375 9.515625 -5.046875 Z M 9.515625 -5.046875 "/></g></g><g style="fill:#ca0013;fill-opacity:1;"><g transform="translate(119.58959, 41.562458)"><path style="stroke:none" d="M 9.703125 -18.96875 C 9.742188 -18.9375 9.785156 -18.863281 9.828125 -18.75 C 9.878906 -18.632812 9.90625 -18.4375 9.90625 -18.15625 C 9.90625 -17.882812 9.84375 -17.476562 9.71875 -16.9375 C 9.601562 -16.394531 9.398438 -15.679688 9.109375 -14.796875 C 9.066406 -14.671875 9.023438 -14.539062 8.984375 -14.40625 C 8.941406 -14.28125 8.898438 -14.160156 8.859375 -14.046875 C 8.515625 -12.953125 8.09375 -11.726562 7.59375 -10.375 C 7.09375 -9.019531 6.414062 -7.535156 5.5625 -5.921875 C 5.363281 -4.941406 5.160156 -3.894531 4.953125 -2.78125 C 4.742188 -1.664062 4.53125 -0.488281 4.3125 0.75 C 4.039062 2.425781 3.828125 3.8125 3.671875 4.90625 C 3.515625 6 3.40625 6.863281 3.34375 7.5 C 3.28125 8.144531 3.238281 8.632812 3.21875 8.96875 C 3.34375 8.925781 3.46875 8.925781 3.59375 8.96875 C 3.695312 9.03125 3.765625 9.117188 3.796875 9.234375 C 3.835938 9.347656 3.835938 9.457031 3.796875 9.5625 C 3.722656 9.726562 3.613281 9.910156 3.46875 10.109375 C 3.332031 10.316406 3.164062 10.421875 2.96875 10.421875 C 2.914062 10.421875 2.859375 10.414062 2.796875 10.40625 C 2.640625 10.363281 2.523438 10.253906 2.453125 10.078125 C 2.378906 9.898438 2.34375 9.566406 2.34375 9.078125 C 2.351562 8.585938 2.421875 7.84375 2.546875 6.84375 C 2.722656 5.257812 3.023438 3.179688 3.453125 0.609375 C 3.691406 -0.796875 3.941406 -2.164062 4.203125 -3.5 C 3.972656 -3.132812 3.734375 -2.757812 3.484375 -2.375 C 3.234375 -2 2.972656 -1.617188 2.703125 -1.234375 C 2.296875 -0.617188 1.925781 -0.1875 1.59375 0.0625 C 1.257812 0.3125 0.96875 0.441406 0.71875 0.453125 C 0.46875 0.472656 0.257812 0.4375 0.09375 0.34375 C -0.238281 0.144531 -0.453125 -0.203125 -0.546875 -0.703125 C -0.640625 -1.203125 -0.628906 -1.765625 -0.515625 -2.390625 C -0.398438 -3.023438 -0.210938 -3.628906 0.046875 -4.203125 C 0.578125 -5.328125 1.1875 -6.117188 1.875 -6.578125 C 2.5625 -7.035156 3.148438 -7.195312 3.640625 -7.0625 C 3.742188 -7.019531 3.90625 -6.914062 4.125 -6.75 C 4.351562 -6.59375 4.492188 -6.296875 4.546875 -5.859375 C 4.617188 -5.984375 4.6875 -6.101562 4.75 -6.21875 C 5.3125 -8.820312 5.863281 -11.066406 6.40625 -12.953125 C 6.945312 -14.847656 7.457031 -16.320312 7.9375 -17.375 C 8.414062 -18.425781 8.820312 -19.003906 9.15625 -19.109375 C 9.363281 -19.179688 9.546875 -19.132812 9.703125 -18.96875 Z M 2 -1.734375 C 2.363281 -2.253906 2.707031 -2.769531 3.03125 -3.28125 C 3.351562 -3.800781 3.660156 -4.3125 3.953125 -4.8125 C 3.722656 -4.894531 3.632812 -5.046875 3.6875 -5.265625 C 3.6875 -5.378906 3.679688 -5.550781 3.671875 -5.78125 C 3.660156 -6.019531 3.566406 -6.164062 3.390625 -6.21875 C 3.359375 -6.238281 3.3125 -6.25 3.25 -6.25 C 2.957031 -6.25 2.582031 -6.050781 2.125 -5.65625 C 1.664062 -5.257812 1.238281 -4.644531 0.84375 -3.8125 C 0.582031 -3.269531 0.414062 -2.75 0.34375 -2.25 C 0.269531 -1.757812 0.253906 -1.347656 0.296875 -1.015625 C 0.335938 -0.679688 0.421875 -0.488281 0.546875 -0.4375 C 0.585938 -0.40625 0.726562 -0.457031 0.96875 -0.59375 C 1.21875 -0.726562 1.5625 -1.109375 2 -1.734375 Z M 8.265625 -15.0625 C 8.453125 -15.59375 8.59375 -16.050781 8.6875 -16.4375 C 8.789062 -16.820312 8.867188 -17.148438 8.921875 -17.421875 C 8.640625 -16.835938 8.289062 -15.945312 7.875 -14.75 C 7.46875 -13.550781 7.023438 -12.007812 6.546875 -10.125 C 6.859375 -10.90625 7.128906 -11.640625 7.359375 -12.328125 C 7.597656 -13.023438 7.816406 -13.679688 8.015625 -14.296875 C 8.066406 -14.429688 8.109375 -14.5625 8.140625 -14.6875 C 8.179688 -14.8125 8.222656 -14.9375 8.265625 -15.0625 Z M 8.265625 -15.0625 "/></g></g><g clip-rule="nonzero" clip-path="url(#e20f257b38)"><path style=" stroke:none;fill-rule:nonzero;fill:#ca0013;fill-opacity:1;" d="M 184.476562 38.617188 C 183.535156 41.117188 182.097656 43.324219 180.175781 45.230469 C 178.25 47.136719 175.933594 48.589844 173.222656 49.589844 C 170.515625 50.59375 167.449219 51.082031 164.035156 51.0625 C 160.617188 51.042969 156.925781 50.363281 152.957031 49.011719 C 150.445312 48.167969 148.128906 47.578125 146.007812 47.25 C 143.886719 46.925781 141.875 46.828125 139.96875 46.960938 C 138.0625 47.097656 136.21875 47.445312 134.429688 48.003906 C 132.644531 48.5625 130.808594 49.265625 128.921875 50.109375 C 128.292969 50.378906 127.722656 50.648438 127.214844 50.917969 C 126.703125 51.1875 126.214844 51.371094 125.742188 51.46875 C 125.269531 51.566406 124.769531 51.535156 124.238281 51.382812 C 123.867188 51.273438 123.453125 51.070312 122.996094 50.773438 C 122.949219 50.785156 122.894531 50.789062 122.839844 50.789062 C 122.804688 50.820312 122.769531 50.851562 122.730469 50.875 L 122.730469 51.1875 C 122.816406 51.238281 122.882812 51.3125 122.933594 51.394531 C 123.425781 51.683594 123.878906 51.875 124.296875 51.960938 C 124.867188 52.074219 125.40625 52.085938 125.917969 51.988281 C 126.429688 51.890625 126.949219 51.71875 127.480469 51.46875 C 128.007812 51.21875 128.609375 50.9375 129.277344 50.628906 C 131.003906 49.859375 132.742188 49.207031 134.488281 48.667969 C 136.238281 48.128906 138.0625 47.78125 139.96875 47.625 C 141.875 47.472656 143.875 47.570312 145.976562 47.914062 C 148.078125 48.261719 150.347656 48.9375 152.78125 49.9375 C 155.648438 51.09375 158.742188 51.738281 162.058594 51.871094 C 165.378906 52.007812 168.558594 51.621094 171.605469 50.71875 C 174.648438 49.8125 177.355469 48.367188 179.734375 46.386719 C 182.109375 44.402344 183.789062 41.851562 184.769531 38.730469 Z M 184.476562 38.617188 "/></g><g clip-rule="nonzero" clip-path="url(#09d1688016)"><g clip-rule="nonzero" clip-path="url(#1f930a191f)"><g clip-rule="nonzero" clip-path="url(#01a392fbfd)"><path style=" stroke:none;fill-rule:nonzero;fill:#ca0013;fill-opacity:1;" d="M 181.648438 25.613281 C 180.636719 25.519531 179.863281 25.960938 179.273438 26.753906 C 178.714844 27.503906 178.488281 28.378906 178.425781 29.296875 C 178.332031 30.582031 178.578125 31.820312 178.972656 33.039062 C 178.992188 33.09375 179.011719 33.152344 179.039062 33.242188 C 178.894531 33.167969 178.78125 33.109375 178.664062 33.050781 C 178.160156 32.804688 177.660156 32.773438 177.167969 33.074219 C 176.894531 33.242188 176.734375 33.484375 176.683594 33.800781 C 176.625 34.175781 176.714844 34.523438 176.886719 34.851562 C 177.441406 35.875 178.335938 36.453125 179.441406 36.710938 C 179.949219 36.828125 180.476562 36.847656 180.992188 36.945312 C 181.78125 37.089844 182.558594 37.285156 183.070312 37.996094 C 183.101562 38.039062 183.230469 38.066406 183.265625 38.039062 C 183.316406 38.003906 183.355469 37.898438 183.335938 37.835938 C 183.261719 37.578125 183.105469 37.359375 182.875 37.230469 C 182.589844 37.074219 182.289062 36.90625 181.976562 36.832031 C 181.332031 36.679688 180.675781 36.5625 180.023438 36.472656 C 179.019531 36.332031 178.230469 35.851562 177.652344 35.03125 C 177.378906 34.648438 177.199219 34.226562 177.265625 33.738281 C 177.328125 33.285156 177.65625 33.082031 178.097656 33.214844 C 178.421875 33.3125 178.683594 33.503906 178.917969 33.734375 C 179.226562 34.03125 179.515625 34.351562 179.824219 34.648438 C 179.980469 34.800781 180.152344 34.9375 180.328125 35.0625 C 180.425781 35.132812 180.546875 35.121094 180.640625 35.027344 C 180.734375 34.933594 180.742188 34.816406 180.683594 34.695312 C 180.667969 34.660156 180.640625 34.625 180.621094 34.589844 C 180.332031 34.003906 180.003906 33.4375 179.765625 32.832031 C 179.179688 31.332031 178.972656 29.78125 179.363281 28.1875 C 179.535156 27.484375 179.832031 26.835938 180.398438 26.351562 C 180.863281 25.953125 181.386719 25.851562 181.960938 26.085938 C 182.589844 26.335938 183.054688 26.789062 183.433594 27.332031 C 184.148438 28.347656 184.527344 29.5 184.765625 30.703125 C 185.140625 32.570312 185.140625 34.445312 184.851562 36.328125 C 184.542969 38.339844 183.898438 40.238281 182.863281 41.996094 C 182.667969 42.328125 182.453125 42.648438 182.230469 42.996094 C 181.476562 44.105469 180.71875 45.207031 179.992188 46.335938 C 178.886719 48.058594 178.085938 49.914062 177.691406 51.933594 C 177.34375 53.734375 177.246094 55.539062 177.59375 57.351562 C 177.863281 58.753906 178.351562 60.074219 179.15625 61.261719 C 179.46875 61.722656 179.816406 62.152344 180.273438 62.480469 C 180.382812 62.5625 180.515625 62.617188 180.65625 62.695312 C 180.652344 62.644531 180.652344 62.628906 180.648438 62.625 C 180.609375 62.582031 180.570312 62.542969 180.527344 62.503906 C 179.417969 61.503906 178.648438 60.289062 178.207031 58.867188 C 177.488281 56.566406 177.496094 54.226562 177.945312 51.878906 C 178.289062 50.089844 178.996094 48.4375 179.898438 46.863281 C 180.664062 45.527344 181.558594 44.277344 182.4375 43.015625 C 182.496094 42.929688 182.582031 42.800781 182.6875 42.640625 C 183.007812 42.140625 183.910156 40.753906 184.480469 39.089844 C 185.152344 37.125 185.425781 35.09375 185.433594 33.023438 C 185.4375 31.652344 185.300781 30.292969 184.871094 28.980469 C 184.582031 28.089844 184.171875 27.261719 183.511719 26.582031 C 182.996094 26.054688 182.394531 25.683594 181.648438 25.613281 Z M 181.648438 25.613281 "/></g></g></g></g></svg>